SplineFontDB: 3.0
FontName: Klein-Italic
FullName: Klein Italic
FamilyName: Klein
Weight: Regular
Copyright: Copyright (c) 2016 by Matt Kline\nLicensed under the SIL Open Font License (OFL)\nDevelopment is ongoing at at https://github.com/mrkline/klein
UComments: "2016-1-15: Created with FontForge (http://fontforge.org)"
Version: 0.3
ItalicAngle: -8
UnderlinePosition: -20
UnderlineWidth: 50
Ascent: 800
Descent: 200
InvalidEm: 0
LayerCount: 2
Layer: 0 0 "Back" 1
Layer: 1 0 "Fore" 0
XUID: [1021 77 -1879282181 14856649]
FSType: 0
OS2Version: 0
OS2_WeightWidthSlopeOnly: 0
OS2_UseTypoMetrics: 1
CreationTime: 1452917949
ModificationTime: 1471245764
PfmFamily: 17
TTFWeight: 500
TTFWidth: 5
LineGap: 100
VLineGap: 0
OS2TypoAscent: 0
OS2TypoAOffset: 1
OS2TypoDescent: 0
OS2TypoDOffset: 1
OS2TypoLinegap: 400
OS2WinAscent: 0
OS2WinAOffset: 1
OS2WinDescent: 0
OS2WinDOffset: 1
HheadAscent: 0
HheadAOffset: 1
HheadDescent: 0
HheadDOffset: 1
OS2CapHeight: 650
OS2XHeight: 450
OS2Vendor: 'PfEd'
Lookup: 4 0 1 "'liga' standard ligatures" { "'liga' standard ligatures-subtable"  } ['liga' ('DFLT' <'dflt' > 'latn' <'dflt' > ) ]
Lookup: 4 0 0 "'dlig' discretionary/historic ligatures" { "'dlig' discretionary/historic ligatures-subtable"  } ['dlig' ('DFLT' <'dflt' > 'latn' <'dflt' > ) ]
Lookup: 260 0 0 "mark to base" { "upper diacritics"  } ['mark' ('DFLT' <'dflt' > 'latn' <'dflt' > ) ]
Lookup: 258 0 0 "'kern' Horizontal Kerning" { "by class" [150,0,2] "per glyph" [100,15,2] } ['kern' ('DFLT' <'dflt' > 'latn' <'dflt' > ) ]
MarkAttachClasses: 1
DEI: 91125
KernClass2: 20 17 "by class"
 1 A
 1 F
 1 J
 1 P
 1 T
 11 V W Y seven
 3 R X
 6 O zero
 4 nine
 1 a
 7 b e o p
 17 c g h m n q s u z
 3 k x
 5 v w y
 5 f f_f
 1 r
 43 quotesingle quoteleft quotedbl quotedblleft
 24 quoteright quotedblright
 37 comma period ellipsis colon semicolon
 1 A
 5 V W Y
 5 T T_h
 1 J
 15 a g m n p r s z
 9 c d e o q
 25 f f_f f_i f_f_i f_l f_f_l
 1 t
 1 i
 1 j
 1 u
 5 v w y
 1 x

StartChar: l
Encoding: 108 108 0
Width: 260
VWidth: 838
Flags: HMW
LayerCount: 2
Fore
SplineSet
181 40 m 5
 239 30 l 5
 235 0 l 5
 35 0 l 5
 39 30 l 5
 101 40 l 5
 182 620 l 5
 125 640 l 5
 128 660 l 5
 210 675 231 685 263 700 c 5
 273 700 l 5
 181 40 l 5
EndSplineSet
EndChar

StartChar: o
Encoding: 111 111 1
Width: 500
VWidth: 838
Flags: HMW
AnchorPoint: "upper" 322 510 basechar 0
LayerCount: 2
Back
SplineSet
251 458 m 0
 283 458 312 452 339 440 c 0
 366 428 388 412 408 392 c 0
 428 372 443 347 454 319 c 0
 465 291 471 260 471 227 c 0
 471 194 465 163 454 135 c 0
 443 107 428 83 408 62 c 0
 388 41 366 25 339 14 c 0
 312 3 283 -3 251 -3 c 0
 219 -3 190 3 163 14 c 0
 136 25 113 41 93 62 c 0
 73 83 58 107 47 135 c 0
 36 163 30 194 30 227 c 0
 30 260 36 291 47 319 c 0
 58 347 73 372 93 392 c 0
 113 412 136 428 163 440 c 0
 190 452 219 458 251 458 c 0
119 227 m 0
 119 166 131 119 154 85 c 0
 177 51 209 34 250 34 c 0
 291 34 324 51 347 85 c 0
 370 119 382 167 382 228 c 0
 382 288 370 335 347 369 c 0
 324 403 292 420 251 420 c 0
 210 420 177 403 154 369 c 0
 131 335 119 288 119 227 c 0
EndSplineSet
Fore
SplineSet
502 225 m 0
 484 100 374 -10 249 -10 c 3
 136 -10 59 81 59 191 c 0
 59 202 60 213 62 225 c 0
 80 350 190 460 315 460 c 3
 428 460 504 369 504 259 c 0
 504 248 504 237 502 225 c 0
308 410 m 3
 213 410 167 329 152 225 c 0
 149 207 148 189 148 172 c 0
 148 94 177 35 255 35 c 3
 350 35 397 121 412 225 c 0
 415 243 416 260 416 277 c 0
 416 354 386 410 308 410 c 3
EndSplineSet
EndChar

StartChar: x
Encoding: 120 120 2
Width: 459
VWidth: 838
Flags: HMW
LayerCount: 2
Fore
SplineSet
328 420 m 1
 332 450 l 1
 482 450 l 1
 478 420 l 1
 448 420 426 400 401 370 c 2
 296 249 l 1
 380 80 l 2
 395 50 413 30 443 30 c 1
 439 0 l 1
 259 0 l 1
 263 30 l 1
 285 30 303 41 305 58 c 0
 306 65 304 72 300 80 c 2
 246 190 l 1
 151 80 l 2
 143 71 140 63 140 53 c 0
 140 38 154 30 174 30 c 1
 170 0 l 1
 20 0 l 1
 24 30 l 1
 54 30 76 50 101 80 c 2
 228 227 l 1
 156 370 l 2
 141 400 123 420 93 420 c 1
 97 450 l 1
 277 450 l 1
 273 420 l 1
 251 420 233 409 231 392 c 0
 230 385 232 378 236 370 c 2
 278 286 l 1
 351 370 l 2
 359 379 362 386 362 396 c 0
 362 411 348 420 328 420 c 1
EndSplineSet
EndChar

StartChar: y
Encoding: 121 121 3
Width: 450
VWidth: 838
Flags: HMW
AnchorPoint: "upper" 315 500 basechar 0
LayerCount: 2
Fore
SplineSet
11 -154 m 0
 15 -127 36 -110 64 -110 c 3
 108 -110 88 -156 105 -156 c 3
 114 -156 134 -146 150 -113 c 2
 227 48 l 1
 142 370 l 2
 134 400 119 420 89 420 c 1
 93 450 l 1
 263 450 l 1
 259 420 l 1
 235 420 224 406 221 385 c 0
 220 380 221 375 222 370 c 2
 279 155 l 1
 382 370 l 2
 385 376 387 382 387 390 c 0
 387 408 372 420 349 420 c 1
 353 450 l 1
 503 450 l 1
 499 420 l 1
 469 420 446 400 432 370 c 2
 200 -113 l 2
 158 -200 114 -210 71 -210 c 3
 37 -210 11 -193 11 -162 c 0
 11 -159 11 -157 11 -154 c 0
EndSplineSet
EndChar

StartChar: z
Encoding: 122 122 4
Width: 393
VWidth: 838
Flags: HMW
LayerCount: 2
Fore
SplineSet
436 450 m 1
 433 425 l 1
 113 35 l 1
 308 35 l 1
 357 135 l 1
 381 135 l 1
 352 0 l 1
 20 0 l 1
 24 25 l 1
 340 410 l 1
 150 410 l 1
 101 310 l 1
 81 310 l 1
 110 450 l 1
 436 450 l 1
EndSplineSet
EndChar

StartChar: i
Encoding: 105 105 5
Width: 260
VWidth: 838
Flags: HMWO
LayerCount: 2
Back
SplineSet
212 549 m 0
 184 549 164 571 164 597 c 0
 164 599 165 602 165 604 c 0
 169 636 196 659 228 659 c 0
 258 659 276 642 276 614 c 0
 276 611 275 607 275 604 c 0
 271 573 244 549 212 549 c 0
230 460 m 1
 240 460 l 1
 188 89 l 2
 187 81 186 71 186 66 c 0
 186 47 191 35 211 35 c 0
 232 35 243 46 256 60 c 1
 267 48 l 1
 241 15 218 -10 173 -10 c 0
 136 -10 105 15 101 40 c 1
 148 380 l 1
 91 400 l 1
 94 420 l 1
 176 435 198 445 230 460 c 1
EndSplineSet
Fore
SplineSet
230 460 m 1
 240 460 l 1
 181 40 l 1
 239 30 l 1
 235 0 l 1
 35 0 l 1
 39 30 l 1
 101 40 l 1
 148 380 l 1
 91 400 l 1
 94 420 l 1
 176 435 198 445 230 460 c 1
212 549 m 3
 184 549 164 571 164 597 c 0
 164 599 165 602 165 604 c 0
 169 636 196 659 228 659 c 3
 258 659 276 642 276 614 c 0
 276 611 275 607 275 604 c 0
 271 573 244 549 212 549 c 3
EndSplineSet
EndChar

StartChar: t
Encoding: 116 116 6
Width: 318
VWidth: 838
Flags: HMW
LayerCount: 2
Back
SplineSet
626 64 m 1
 596 25 557 5 507 5 c 0
 453 5 387 25 387 110 c 2
 387 392 l 1
 317 392 l 1
 317 420 l 1
 399 423 437 468 436 571 c 1
 467 571 l 1
 467 420 l 1
 587 420 l 1
 587 392 l 1
 467 392 l 1
 467 311 467 230 467 149 c 0
 467 73 488 38 530 38 c 0
 555 38 574 50 603 83 c 1
 626 64 l 1
289 60 m 1
 267 26 226 -3 174 -3 c 0
 131 -3 98 20 88 56 c 0
 84 70 81 90 81 116 c 2
 81 420 l 1
 28 420 l 1
 26 433 l 1
 146 559 l 1
 161 557 l 1
 161 449 l 1
 281 449 l 1
 275 420 l 1
 161 420 l 1
 161 123 l 2
 161 91 161 72 169 60 c 0
 179.182617188 44.7255859375 192 36 211 36 c 0
 238 36 262 53 275 70 c 1
 289 60 l 1
EndSplineSet
Fore
SplineSet
305 50 m 1
 278 17 234 -10 182 -10 c 0
 139 -10 110 15 104 51 c 0
 103 57 103 64 103 73 c 0
 103 84 104 97 106 111 c 2
 148 410 l 1
 83 410 l 1
 88 450 l 1
 152 450 206 536 226 610 c 5
 256 610 l 1
 233 450 l 1
 353 450 l 1
 348 410 l 1
 228 410 l 1
 187 118 l 2
 185 104 183 89 183 76 c 0
 183 67 184 60 186 55 c 0
 193 39 203 30 223 30 c 0
 250 30 277 48 292 65 c 1
 305 50 l 1
EndSplineSet
EndChar

StartChar: s
Encoding: 115 115 7
Width: 366
Flags: HMW
LayerCount: 2
Fore
SplineSet
92 335 m 0
 104 423 176 460 269 460 c 3
 304 460 347 456 369 446 c 1
 353 331 l 1
 333 331 l 1
 324 403 303 410 255 410 c 3
 211 410 178 384 173 345 c 0
 173 342 173 338 173 335 c 0
 173 270 271 260 304 235 c 0
 328 217 346 190 346 150 c 0
 346 143 345 136 344 128 c 0
 331 37 261 -10 167 -10 c 3
 128 -10 79 -3 51 8 c 1
 70 143 l 1
 90 143 l 1
 96 55 125 35 180 35 c 3
 218 35 256 69 262 113 c 0
 263 117 263 121 263 124 c 0
 263 188 173 201 133 231 c 0
 109 250 91 274 91 314 c 0
 91 320 91 328 92 335 c 0
EndSplineSet
EndChar

StartChar: h
Encoding: 104 104 8
Width: 522
VWidth: 838
Flags: HMW
LayerCount: 2
Fore
SplineSet
223 410 m 1
 270 447 309 460 378 460 c 3
 429 460 487 433 492 393 c 0
 493 388 493 383 493 378 c 0
 493 363 491 348 489 331 c 2
 489 331 462 139 448 40 c 5
 506 30 l 5
 502 0 l 1
 302 0 l 1
 306 30 l 5
 368 40 l 5
 401 280 l 2
 404 302 407 322 407 340 c 0
 407 382 394 410 344 410 c 3
 297 410 254 396 216 360 c 1
 171 40 l 5
 229 30 l 5
 225 0 l 1
 25 0 l 1
 29 30 l 5
 91 40 l 5
 172 620 l 1
 115 640 l 1
 118 660 l 1
 200 675 221 685 253 700 c 1
 263 700 l 1
 223 410 l 1
EndSplineSet
EndChar

StartChar: b
Encoding: 98 98 9
Width: 497
VWidth: 838
Flags: HMW
LayerCount: 2
Back
SplineSet
156 75 m 2
 153 55 188 35 235 35 c 3
 323 35 390 127 403 218 c 0
 405 234 406 250 406 265 c 0
 406 345 374 410 297 410 c 3
 242 410 194 350 191 330 c 2
 156 75 l 2
124 30 m 1
 85 0 l 1
 65 0 l 1
 152 620 l 1
 95 640 l 1
 98 660 l 1
 180 675 201 685 233 700 c 1
 243 700 l 1
 201 400 l 1
 201 400 259 460 320 460 c 3
 428 460 497 374 497 268 c 0
 497 256 497 245 495 233 c 0
 475 92 364 -10 224 -10 c 3
 158 -10 124 30 124 30 c 1
EndSplineSet
Fore
SplineSet
156 75 m 2
 153 55 188 35 235 35 c 3
 323 35 390 127 403 218 c 0
 405 234 406 250 406 265 c 3
 406 345 374 410 297 410 c 3
 242 410 194 350 191 330 c 2
 156 75 l 2
124 30 m 1
 95 0 l 1
 65 0 l 1
 152 620 l 1
 95 640 l 1
 98 660 l 1
 180 675 201 685 233 700 c 1
 243 700 l 1
 201 400 l 1
 201 400 259 460 320 460 c 3
 428 460 497 374 497 268 c 3
 497 256 497 245 495 233 c 0
 475 92 364 -10 224 -10 c 3
 158 -10 124 30 124 30 c 1
EndSplineSet
EndChar

StartChar: v
Encoding: 118 118 10
Width: 437
VWidth: 838
Flags: HMW
LayerCount: 2
Fore
SplineSet
336 420 m 1
 340 450 l 1
 490 450 l 1
 486 420 l 1
 456 420 434 400 419 370 c 2
 230 -10 l 1
 209 -10 l 1
 122 370 l 2
 115 400 99 420 69 420 c 1
 73 450 l 1
 253 450 l 1
 249 420 l 1
 224 420 204 407 201 386 c 0
 200 381 201 377 202 370 c 2
 254 142 l 1
 369 370 l 2
 372 376 374 382 374 390 c 0
 374 408 359 420 336 420 c 1
EndSplineSet
EndChar

StartChar: u
Encoding: 117 117 11
Width: 495
VWidth: 838
Flags: HMW
AnchorPoint: "upper" 300 500 basechar 0
LayerCount: 2
Fore
SplineSet
340 35 m 5
 296 0 255 -10 187 -10 c 4
 117 -10 95 26 95 85 c 0
 95 102 97 121 100 142 c 6
 138 410 l 5
 80 430 l 5
 83 450 l 5
 223 450 l 5
 183 162 l 6
 180 139 177 117 177 99 c 0
 177 60 189 35 235 35 c 4
 283 35 318 55 347 85 c 5
 393 410 l 5
 335 430 l 5
 338 450 l 5
 478 450 l 5
 422 50 l 5
 479 30 l 5
 478 20 l 5
 354 -10 l 5
 344 -10 l 5
 349 30 l 5
 340 35 l 5
EndSplineSet
EndChar

StartChar: c
Encoding: 99 99 12
Width: 448
VWidth: 838
Flags: HMW
AnchorPoint: "upper" 322 510 basechar 0
LayerCount: 2
Back
SplineSet
470 225 m 3
 470 100 375 -10 250 -10 c 3
 125 -10 30 100 30 225 c 3
 30 350 125 460 250 460 c 3
 375 460 470 350 470 225 c 3
250 410 m 3
 155 410 120 329 120 225 c 3
 120 122 155 35 250 35 c 3
 345 35 380 121 380 225 c 3
 380 328 345 410 250 410 c 3
EndSplineSet
Fore
SplineSet
461 369 m 4
 457 344 439 328 414 328 c 7
 354 328 403 410 308 410 c 7
 213 410 167 329 152 225 c 4
 150 208 148 191 148 175 c 4
 148 99 178 40 256 40 c 7
 351 40 411 126 411 126 c 5
 434 111 l 5
 434 111 374 -10 249 -10 c 7
 120 -10 59 76 59 183 c 4
 59 197 60 211 62 225 c 4
 80 350 190 460 315 460 c 7
 382 460 461 419 461 374 c 4
 461 372 461 371 461 369 c 4
EndSplineSet
EndChar

StartChar: e
Encoding: 101 101 13
Width: 459
VWidth: 838
Flags: HMW
AnchorPoint: "upper" 312 510 basechar 0
LayerCount: 2
Back
SplineSet
409 369 m 3
 409 344 393 328 368 328 c 3
 308 328 345 410 250 410 c 3
 155 410 120 329 120 225 c 3
 120 127 155 40 250 40 c 3
 345 40 393 126 393 126 c 1
 418 111 l 1
 418 111 375 -10 250 -10 c 3
 105 -10 30 100 30 225 c 3
 30 350 125 460 250 460 c 3
 320 460 409 416 409 369 c 3
EndSplineSet
Fore
SplineSet
153 235 m 1
 150 215 149 196 149 177 c 0
 149 99 177 40 256 40 c 3
 351 40 411 126 411 126 c 1
 434 111 l 1
 434 111 374 -10 249 -10 c 3
 120 -10 59 76 59 183 c 0
 59 197 60 211 62 225 c 0
 80 350 190 460 315 460 c 3
 427 460 465 373 465 304 c 0
 465 296 464 287 463 280 c 0
 459 255 438 235 408 235 c 2
 153 235 l 1
163 280 m 1
 365 280 l 2
 375 280 385 290 386 300 c 0
 386 303 388 311 388 322 c 0
 388 354 378 410 307 410 c 3
 187 410 163 280 163 280 c 1
EndSplineSet
EndChar

StartChar: d
Encoding: 100 100 14
Width: 518
VWidth: 838
Flags: HMW
LayerCount: 2
Fore
SplineSet
442 106 m 2
 440 91 438 77 438 66 c 0
 438 47 443 35 463 35 c 3
 484 35 495 46 508 60 c 1
 519 48 l 1
 493 15 470 -10 425 -10 c 3
 388 -10 362 5 358 30 c 1
 352 35 l 1
 330 15 272 -10 209 -10 c 3
 153 -10 116 21 94 55 c 0
 75 84 63 127 63 176 c 0
 63 190 64 205 66 220 c 0
 82 332 146 406 229 440 c 0
 258 451 289 460 322 460 c 3
 353 460 382 453 410 445 c 1
 434 620 l 1
 377 640 l 1
 380 660 l 1
 462 675 483 685 515 700 c 1
 525 700 l 1
 442 106 l 2
158 233 m 0
 155 215 154 197 154 179 c 0
 154 103 179 35 250 35 c 0
 295 35 338 66 360 95 c 1
 394 337 l 2
 395 341 395 345 395 349 c 0
 395 389 364 410 313 410 c 3
 209 410 172 336 158 233 c 0
EndSplineSet
EndChar

StartChar: f
Encoding: 102 102 15
Width: 445
VWidth: 838
Flags: HMW
LayerCount: 2
Back
SplineSet
365 569 m 7
 335 569 310 595 310 624 c 7
 310 656 333 679 365 679 c 7
 398 679 420 657 420 624 c 7
 420 593 397 569 365 569 c 7
EndSplineSet
Fore
SplineSet
509 630 m 0
 505 605 488 590 463 590 c 3
 403 590 455 660 363 660 c 3
 284 660 262 580 250 495 c 2
 243 450 l 1
 363 450 l 1
 358 410 l 1
 238 410 l 1
 186 40 l 1
 244 30 l 1
 240 0 l 1
 40 0 l 1
 44 30 l 1
 106 40 l 1
 158 410 l 1
 78 410 l 1
 98 450 l 1
 163 450 l 1
 169 490 l 2
 187 620 296 700 393 700 c 3
 443 700 509 682 509 637 c 0
 509 635 509 632 509 630 c 0
EndSplineSet
EndChar

StartChar: g
Encoding: 103 103 16
Width: 472
VWidth: 838
Flags: HMW
LayerCount: 2
Back
SplineSet
49 296 m 3
 49 386 128 460 218 460 c 3
 308 460 387 386 387 296 c 3
 387 206 308 132 218 132 c 3
 128 132 49 206 49 296 c 3
218 296 m 1048
316 428 m 1
 336 462 370 492 403 492 c 0
 428 492 452 473 452 451 c 0
 452 428 433 408 416 408 c 0
 388 408 363 429 342 405 c 1
 316 428 l 1
349 509 m 1
 279 576 l 1
 287 581 l 1
 323 583 346 586 422 611 c 1
 427 602 l 1
 349 509 l 1
EndSplineSet
Fore
SplineSet
276 410 m 3
 206 410 179 356 171 296 c 0
 169 285 168 274 168 264 c 0
 168 218 186 180 243 180 c 3
 313 180 340 236 348 296 c 0
 350 307 350 319 350 329 c 0
 350 375 333 410 276 410 c 3
80 -70 m 0
 79 -74 79 -78 79 -82 c 0
 79 -129 121 -160 198 -160 c 3
 281 -160 335 -124 343 -70 c 0
 344 -66 344 -62 344 -59 c 0
 344 -14 298 0 220 0 c 2
 154 0 l 2
 114 0 84 -39 80 -70 c 0
425 356 m 1
 425 356 430 341 430 318 c 0
 430 311 430 304 429 296 c 0
 416 206 327 132 237 132 c 3
 200 132 173 145 173 145 c 1
 139 115 133 102 133 85 c 0
 133 61 189 42 239 42 c 3
 373 42 417 25 417 -32 c 0
 417 -38 417 -45 416 -52 c 0
 405 -132 333 -210 192 -210 c 3
 85 -210 7 -163 7 -96 c 0
 7 -92 7 -88 8 -84 c 0
 15 -34 46 7 102 30 c 1
 73 44 63 62 63 80 c 0
 63 82 63 85 63 87 c 0
 67 117 96 145 130 175 c 1
 130 175 89 212 89 275 c 0
 89 282 90 289 91 296 c 0
 104 386 193 460 283 460 c 3
 343 460 376 428 376 428 c 1
 409 428 432 436 507 460 c 1
 515 450 l 1
 425 356 l 1
EndSplineSet
EndChar

StartChar: j
Encoding: 106 106 17
Width: 260
VWidth: 838
Flags: HMW
LayerCount: 2
Back
SplineSet
-135 -90 m 0
 -135 -65 -120 -50 -95 -50 c 0
 -35 -50 -77 -120 15 -120 c 0
 94 -120 105 -40 105 45 c 4
 105 500 l 1
 45 510 l 1
 45 540 l 1
 245 540 l 1
 245 510 l 1
 185 500 l 1
 185 50 l 4
 185 -80 87 -160 -10 -160 c 0
 -62 -160 -135 -140 -135 -90 c 0
EndSplineSet
Fore
SplineSet
185 0 m 2
 172 -96 85 -157 -12 -157 c 3
 -61 -157 -108 -136 -108 -94 c 0
 -108 -91 -107 -89 -107 -86 c 0
 -103 -61 -85 -45 -60 -45 c 3
 0 -45 -52 -117 10 -117 c 3
 89 -117 105 -2 111 40 c 2
 158 380 l 1
 101 400 l 1
 104 420 l 1
 186 435 208 445 240 460 c 1
 250 460 l 1
 185 0 l 2
222 549 m 3
 194 549 174 571 174 597 c 0
 174 599 175 602 175 604 c 0
 179 636 206 659 238 659 c 3
 268 659 286 642 286 614 c 0
 286 611 285 607 285 604 c 0
 281 573 254 549 222 549 c 3
EndSplineSet
EndChar

StartChar: a
Encoding: 97 97 18
Width: 517
VWidth: 838
Flags: HMW
LayerCount: 2
Back
SplineSet
356 -10 m 5
 361 30 l 5
 352 35 l 5
 330 15 272 -10 209 -10 c 7
 153 -10 116 21 94 55 c 4
 75 84 63 127 63 176 c 4
 63 190 64 205 66 220 c 4
 82 332 146 406 229 440 c 4
 258 451 289 460 322 460 c 7
 353 460 382 453 410 445 c 5
 434 620 l 5
 377 640 l 5
 380 660 l 5
 462 675 483 685 515 700 c 5
 525 700 l 5
 435 60 l 5
 493 40 l 5
 490 20 l 5
 366 -10 l 5
 356 -10 l 5
158 233 m 4
 155 215 154 197 154 179 c 4
 154 103 179 35 250 35 c 4
 295 35 338 66 360 95 c 5
 394 337 l 6
 395 341 395 345 395 349 c 4
 395 389 364 410 313 410 c 7
 209 410 172 336 158 233 c 4
EndSplineSet
Fore
SplineSet
352 35 m 5
 330 15 272 -10 209 -10 c 3
 153 -10 116 21 94 55 c 0
 75 84 63 127 63 176 c 0
 63 190 64 205 66 220 c 0
 82 332 146 406 229 440 c 0
 258 451 289 460 322 460 c 3
 353 460 386 455 406 420 c 1
 412 460 l 1
 492 460 l 1
 442 106 l 6
 440 91 438 77 438 66 c 4
 438 47 443 35 463 35 c 7
 484 35 495 46 508 60 c 5
 519 48 l 5
 493 15 470 -10 425 -10 c 7
 388 -10 362 5 358 30 c 5
 352 35 l 5
158 233 m 0
 155 215 154 197 154 179 c 0
 154 103 179 35 250 35 c 0
 295 35 338 66 360 95 c 5
 394 337 l 2
 395 341 395 345 395 349 c 0
 395 389 364 410 313 410 c 3
 209 410 172 336 158 233 c 0
EndSplineSet
EndChar

StartChar: A
Encoding: 65 65 19
Width: 635
VWidth: 838
Flags: HMW
AnchorPoint: "upper" 413 700 basechar 0
LayerCount: 2
Fore
SplineSet
439 200 m 1
 231 200 l 1
 171 80 l 2
 168 75 167 70 167 64 c 0
 167 42 195 30 224 30 c 1
 220 0 l 1
 10 0 l 1
 14 30 l 1
 54 30 86 50 101 80 c 2
 388 650 l 1
 426 660 l 1
 556 80 l 2
 563 50 589 30 629 30 c 1
 625 0 l 1
 395 0 l 1
 399 30 l 1
 429 30 464 45 467 69 c 0
 468 73 466 76 466 80 c 2
 439 200 l 1
254 245 m 1
 429 245 l 1
 375 485 l 1
 254 245 l 1
EndSplineSet
EndChar

StartChar: B
Encoding: 66 66 20
Width: 572
VWidth: 838
Flags: HMW
LayerCount: 2
Fore
SplineSet
570 494 m 0
 558 409 493 361 415 345 c 1
 415 342 l 1
 489 334 541 295 558 235 c 0
 561 222 563 208 563 194 c 0
 563 187 562 179 561 171 c 0
 548 81 484 28 408 10 c 0
 379 4 344 0 297 0 c 2
 25 0 l 1
 29 30 l 1
 106 45 l 1
 185 605 l 5
 112 620 l 5
 116 650 l 1
 373 650 l 2
 477 650 538 630 564 563 c 0
 569 549 572 534 572 518 c 0
 572 510 571 502 570 494 c 0
248 375 m 1
 299 375 l 2
 408 375 465 383 481 496 c 0
 482 503 482 510 482 516 c 0
 482 582 427 600 350 600 c 2
 279 600 l 1
 248 375 l 1
462 179 m 0
 464 191 465 202 465 212 c 0
 465 294 409 315 309 315 c 2
 239 315 l 1
 211 111 l 2
 210 106 210 102 210 98 c 0
 210 66 231 60 276 60 c 3
 387 60 447 71 462 179 c 0
EndSplineSet
EndChar

StartChar: C
Encoding: 67 67 21
Width: 631
VWidth: 838
Flags: HMW
LayerCount: 2
Back
SplineSet
340 660 m 7
 530 660 645 520 645 330 c 3
 645 140 530 -10 340 -10 c 7
 150 -10 35 140 35 330 c 7
 35 520 150 660 340 660 c 7
140 330 m 7
 140 180 190 45 340 45 c 7
 490 45 540 180 540 330 c 3
 540 480 490 600 340 600 c 7
 190 600 140 480 140 330 c 7
EndSplineSet
Fore
SplineSet
339 -10 m 3
 170 -10 77 108 77 268 c 0
 77 288 78 309 81 330 c 0
 108 520 243 660 433 660 c 3
 548 660 606 605 606 605 c 1
 657 650 l 1
 677 650 l 1
 650 458 l 1
 620 458 l 1
 620 458 574 600 424 600 c 3
 274 600 207 480 186 330 c 0
 182 303 180 276 180 251 c 0
 180 136 223 45 346 45 c 3
 496 45 573 154 573 154 c 1
 605 134 l 5
 605 134 529 -10 339 -10 c 3
EndSplineSet
EndChar

StartChar: D
Encoding: 68 68 22
Width: 655
VWidth: 838
Flags: HMW
AnchorPoint: "upper" 438 700 basechar 0
LayerCount: 2
Fore
SplineSet
25 0 m 1
 29 30 l 1
 106 45 l 1
 185 605 l 1
 112 620 l 1
 116 650 l 1
 329 650 l 2
 546 650 670 542 670 379 c 0
 670 363 668 347 666 330 c 0
 639 140 510 0 310 0 c 2
 25 0 l 1
205 109 m 2
 204 105 204 102 204 98 c 0
 204 62 235 58 284 58 c 3
 459 58 540 180 561 330 c 0
 564 349 565 368 565 386 c 0
 565 509 500 601 339 601 c 2
 274 601 l 1
 205 109 l 2
EndSplineSet
EndChar

StartChar: E
Encoding: 69 69 23
Width: 553
VWidth: 838
Flags: HMW
AnchorPoint: "upper" 378 700 basechar 0
LayerCount: 2
Fore
SplineSet
556 466 m 1
 549 518 534 556 514 600 c 1
 274 600 l 1
 243 375 l 1
 392 375 l 1
 410 406 423 421 434 458 c 1
 454 458 l 1
 421 223 l 1
 401 223 l 1
 401 257 394 282 383 315 c 1
 234 315 l 1
 198 59 l 1
 433 59 l 1
 472 111 494 141 523 201 c 1
 551 201 l 1
 492 0 l 1
 25 0 l 1
 29 30 l 1
 106 45 l 1
 185 605 l 5
 112 620 l 5
 116 650 l 1
 587 650 l 1
 576 466 l 1
 556 466 l 1
EndSplineSet
EndChar

StartChar: H
Encoding: 72 72 24
Width: 694
VWidth: 838
Flags: HMW
LayerCount: 2
Fore
SplineSet
549 320 m 1
 235 320 l 1
 196 45 l 1
 269 30 l 1
 265 0 l 1
 25 0 l 1
 29 30 l 1
 106 45 l 1
 185 605 l 1
 112 620 l 1
 116 650 l 1
 356 650 l 1
 352 620 l 1
 275 605 l 1
 243 380 l 1
 557 380 l 1
 589 605 l 1
 516 620 l 1
 520 650 l 1
 760 650 l 1
 756 620 l 1
 679 605 l 1
 600 45 l 1
 673 30 l 1
 669 0 l 1
 429 0 l 1
 433 30 l 1
 510 45 l 1
 549 320 l 1
EndSplineSet
EndChar

StartChar: I
Encoding: 73 73 25
Width: 289
VWidth: 838
Flags: HMW
AnchorPoint: "upper" 238 700 basechar 0
LayerCount: 2
Fore
SplineSet
185 605 m 1
 112 620 l 1
 116 650 l 1
 355 650 l 1
 351 620 l 1
 274 605 l 1
 195 45 l 5
 268 30 l 5
 264 0 l 1
 25 0 l 1
 29 30 l 5
 106 45 l 5
 185 605 l 1
EndSplineSet
EndChar

StartChar: J
Encoding: 74 74 26
Width: 415
VWidth: 838
Flags: HW
LayerCount: 2
Fore
SplineSet
338 162 m 2
 324 62 235 0 125 0 c 3
 78 0 25 23 25 68 c 0
 25 71 26 73 26 76 c 0
 30 101 53 122 78 122 c 3
 143 122 93 50 158 50 c 3
 228 50 241 115 253 200 c 2
 310 605 l 1
 237 620 l 1
 241 650 l 1
 481 650 l 1
 477 620 l 1
 400 605 l 1
 338 162 l 2
EndSplineSet
EndChar

StartChar: O
Encoding: 79 79 27
Width: 680
VWidth: 838
Flags: HMW
AnchorPoint: "upper" 438 700 basechar 0
LayerCount: 2
Fore
SplineSet
433 660 m 3
 602 660 696 549 696 391 c 0
 696 371 694 351 691 330 c 0
 664 140 529 -10 339 -10 c 3
 170 -10 77 108 77 268 c 0
 77 288 78 309 81 330 c 0
 108 520 243 660 433 660 c 3
186 330 m 0
 182 303 180 276 180 251 c 0
 180 136 223 45 346 45 c 3
 496 45 565 180 586 330 c 4
 590 356 592 382 592 406 c 0
 592 519 548 600 424 600 c 3
 274 600 207 480 186 330 c 0
EndSplineSet
EndChar

StartChar: r
Encoding: 114 114 28
Width: 360
VWidth: 838
Flags: HMW
LayerCount: 2
Back
SplineSet
329 406 m 0
 329 379 307 358 280 358 c 0
 267 358 256 363 248 374 c 0
 240 383 236 390 222 390 c 0
 210 390 199 383 189 369 c 0
 179 356 173 347 170 343 c 0
 167 339 165 334 164 329 c 1
 164 34 l 1
 248 22 l 1
 248 5 l 1
 21 5 l 1
 21 22 l 1
 85 34 l 1
 85 383 l 1
 23 407 l 1
 23 417 l 1
 153 459 l 1
 161 459 l 1
 161 366 l 1
 181 396 200 419 220 435 c 0
 240 451 258 459 276 459 c 0
 305 459 329 435 329 406 c 0
EndSplineSet
Fore
SplineSet
138 380 m 5
 81 400 l 5
 84 420 l 5
 166 435 188 445 220 460 c 5
 230 460 l 5
 220 390 l 5
 220 390 279 460 340 460 c 7
 367 460 388 443 388 417 c 4
 388 415 388 412 388 410 c 4
 384 383 359 360 331 360 c 7
 303 360 301 390 275 390 c 7
 250 390 214 350 211 330 c 6
 171 40 l 5
 229 30 l 5
 225 0 l 5
 25 0 l 5
 29 30 l 5
 91 40 l 5
 138 380 l 5
EndSplineSet
EndChar

StartChar: k
Encoding: 107 107 29
Width: 482
VWidth: 838
Flags: HMW
LayerCount: 2
Fore
SplineSet
193 235 m 1
 330 370 l 2
 340 380 344 386 344 396 c 0
 344 411 327 420 307 420 c 1
 311 450 l 1
 491 450 l 1
 487 420 l 1
 457 420 430 400 400 370 c 2
 276 248 l 1
 413 40 l 1
 471 30 l 1
 467 0 l 1
 349 0 l 1
 226 200 l 1
 182 156 l 1
 166 40 l 1
 224 30 l 1
 220 0 l 1
 20 0 l 1
 24 30 l 1
 86 40 l 1
 167 620 l 1
 110 640 l 1
 113 660 l 1
 195 675 216 685 248 700 c 1
 258 700 l 1
 193 235 l 1
EndSplineSet
EndChar

StartChar: w
Encoding: 119 119 30
Width: 668
VWidth: 838
Flags: HMW
LayerCount: 2
Fore
SplineSet
567 420 m 1
 571 450 l 1
 721 450 l 1
 717 420 l 1
 687 419 665 402 650 370 c 2
 463 -10 l 1
 436 -10 l 1
 380 310 l 1
 225 -10 l 1
 198 -10 l 1
 122 370 l 2
 116 400 99 420 69 420 c 1
 73 450 l 1
 253 450 l 1
 249 420 l 1
 224 420 205 406 202 384 c 0
 201 380 202 375 202 370 c 2
 248 142 l 1
 363 380 l 18
 366 385 369 390 369 396 c 0
 369 407 353 420 329 420 c 1
 333 450 l 1
 498 450 l 1
 494 420 l 1
 469 420 450 406 448 394 c 0
 447 390 447 385 448 380 c 2
 489 142 l 1
 600 370 l 2
 604 378 605 382 605 390 c 0
 605 408 590 420 567 420 c 1
EndSplineSet
EndChar

StartChar: F
Encoding: 70 70 31
Width: 535
VWidth: 838
Flags: HMW
LayerCount: 2
Back
SplineSet
490 466 m 5
 476 518 455 557 429 601 c 5
 190 601 l 5
 190 375 l 5
 339 375 l 5
 353 406 364 421 370 458 c 5
 390 458 l 5
 390 223 l 5
 370 223 l 5
 365 257 355 282 339 315 c 5
 190 315 l 5
 190 59 l 5
 425 59 l 5
 457 111 474 141 495 201 c 5
 523 201 l 5
 492 0 l 5
 25 0 l 5
 25 20 l 5
 100 35 l 5
 100 615 l 5
 25 630 l 5
 25 650 l 5
 495 650 l 5
 510 466 l 5
 490 466 l 5
EndSplineSet
Fore
SplineSet
555 466 m 1
 548 518 533 557 513 601 c 1
 274 601 l 1
 243 375 l 1
 392 375 l 1
 410 406 423 421 434 458 c 1
 454 458 l 1
 421 223 l 1
 401 223 l 1
 401 257 394 282 383 315 c 1
 234 315 l 1
 196 45 l 5
 269 30 l 5
 265 0 l 1
 25 0 l 1
 29 30 l 5
 106 45 l 5
 185 605 l 1
 112 620 l 1
 116 650 l 1
 586 650 l 1
 575 466 l 1
 555 466 l 1
EndSplineSet
EndChar

StartChar: G
Encoding: 71 71 32
Width: 668
VWidth: 838
Flags: HMW
LayerCount: 2
Back
SplineSet
36 324 m 7
 36 518 151 659 343 659 c 7
 415 659 477 637 523 608 c 5
 527 608 l 5
 568 651 l 5
 583 651 l 5
 583 458 l 5
 558 458 l 5
 527 551 475 609 357 609 c 7
 201 609 142 495 142 329 c 7
 142 163 202 50 357 50 c 7
 480 50 540 119 560 225 c 5
 583 225 l 5
 583 5 l 5
 563 5 l 5
 524 60 l 5
 471 21 422 -3 340 -3 c 7
 150 -3 36 133 36 324 c 7
EndSplineSet
Fore
SplineSet
450 611 m 0
 288 611 212 490 187 315 c 0
 183 286 181 259 181 235 c 0
 181 102 243 45 362 45 c 0
 433 45 492 70 502 142 c 2
 522 288 l 1
 450 303 l 1
 452 323 l 1
 688 323 l 1
 686 303 l 1
 608 288 l 1
 578 68 l 1
 524 22 431 -10 339 -10 c 4
 243 -10 175 30 133 82 c 0
 98 126 75 185 75 259 c 0
 75 277 76 296 79 315 c 0
 106 508 251 659 443 659 c 0
 510 659 564 640 596 608 c 1
 599 608 l 1
 650 650 l 1
 669 650 l 1
 642 458 l 1
 622 458 l 1
 597 544 569 611 450 611 c 0
EndSplineSet
EndChar

StartChar: L
Encoding: 76 76 33
Width: 544
VWidth: 838
Flags: HMW
LayerCount: 2
Fore
SplineSet
275 605 m 1
 198 59 l 1
 440 59 l 1
 479 112 501 141 530 201 c 1
 552 201 l 1
 493 0 l 1
 25 0 l 1
 29 30 l 1
 106 45 l 1
 185 605 l 1
 112 620 l 1
 116 650 l 1
 356 650 l 1
 352 620 l 1
 275 605 l 1
EndSplineSet
EndChar

StartChar: p
Encoding: 112 112 34
Width: 517
VWidth: 838
Flags: HMW
LayerCount: 2
Back
SplineSet
85 380 m 1
 25 400 l 1
 25 420 l 1
 105 435 125 445 155 460 c 1
 165 460 l 1
 165 400 l 1
 165 400 214 460 275 460 c 3
 304 460 330 439 330 410 c 3
 330 383 308 360 280 360 c 3
 252 360 246 390 220 390 c 3
 195 390 165 350 165 330 c 2
 165 30 l 1
 225 20 l 1
 225 0 l 1
 25 0 l 1
 25 20 l 1
 85 30 l 1
 85 380 l 1
EndSplineSet
Fore
SplineSet
221 400 m 1
 221 400 279 460 340 460 c 3
 448 460 517 374 517 268 c 0
 517 256 517 245 515 233 c 0
 495 92 384 -10 244 -10 c 3
 203 -10 166 10 166 10 c 1
 141 -170 l 5
 200 -180 l 5
 195 -210 l 1
 -5 -210 l 1
 -0 -180 l 5
 61 -170 l 5
 138 380 l 1
 71 400 l 1
 74 420 l 1
 156 435 188 445 220 460 c 1
 230 460 l 1
 221 400 l 1
176 75 m 2
 173 55 208 35 255 35 c 3
 343 35 410 127 423 218 c 0
 425 234 426 250 426 265 c 0
 426 345 394 410 317 410 c 3
 262 410 214 350 211 330 c 2
 176 75 l 2
EndSplineSet
EndChar

StartChar: q
Encoding: 113 113 35
Width: 493
VWidth: 838
Flags: HMW
LayerCount: 2
Back
SplineSet
348 375 m 2
 348 395 310 415 263 415 c 3
 175 415 121 323 121 232 c 3
 121 133 162 40 254 40 c 3
 309 40 348 100 348 120 c 2
 348 375 l 2
373 420 m 1
 408 450 l 1
 428 450 l 1
 428 -170 l 1
 488 -190 l 1
 488 -210 l 1
 408 -225 388 -235 358 -250 c 1
 348 -250 l 1
 348 50 l 1
 348 50 299 -10 238 -10 c 3
 118 -10 31 95 31 217 c 3
 31 358 128 460 268 460 c 3
 334 460 373 420 373 420 c 1
EndSplineSet
Fore
SplineSet
404 -170 m 1
 463 -180 l 1
 458 -210 l 1
 258 -210 l 1
 263 -180 l 1
 324 -170 l 1
 355 50 l 1
 355 50 298 -10 237 -10 c 3
 129 -10 59 76 59 182 c 0
 59 194 59 205 61 217 c 0
 81 358 193 460 333 460 c 3
 399 460 432 420 432 420 c 1
 471 450 l 1
 491 450 l 1
 404 -170 l 1
401 375 m 2
 404 395 368 415 321 415 c 3
 233 415 167 323 154 232 c 0
 152 216 150 200 150 185 c 0
 150 105 183 40 260 40 c 3
 315 40 362 100 365 120 c 2
 401 375 l 2
EndSplineSet
EndChar

StartChar: m
Encoding: 109 109 36
Width: 753
VWidth: 838
Flags: HMW
LayerCount: 2
Back
SplineSet
424 460 m 5
 424 400 l 5
 424 400 470 460 561 460 c 7
 667 460 673 410 673 298 c 6
 673 30 l 5
 733 20 l 5
 733 0 l 5
 534 0 l 5
 534 20 l 5
 594 30 l 5
 594 280 l 6
 594 354 591 410 520 410 c 7
 459.966796875 410 424 350 424 330 c 6
 424 30 l 5
 484 20 l 5
 484 0 l 5
 284 0 l 5
 284 20 l 5
 344 30 l 5
 344 380 l 5
 274 400 l 5
 274 420 l 5
 354 435 384 445 414 460 c 5
 424 460 l 5
175 460 m 1
 175 400 l 1
 175 400 221 460 312 460 c 3
 418 460 424 410 424 298 c 2
 424 30 l 1
 484 20 l 1
 484 0 l 1
 285 0 l 1
 285 20 l 1
 345 30 l 1
 345 280 l 2
 345 354 342 410 271 410 c 3
 210.966796875 410 175 350 175 330 c 2
 175 30 l 1
 235 20 l 1
 235 0 l 1
 35 0 l 1
 35 20 l 1
 95 30 l 1
 95 380 l 1
 25 400 l 1
 25 420 l 1
 105 435 135 445 165 460 c 1
 175 460 l 1
EndSplineSet
Fore
SplineSet
473 392 m 1
 473 392 527 460 626 460 c 3
 702 460 723 435 723 379 c 0
 723 357 719 330 715 298 c 2
 679 40 l 5
 737 30 l 5
 733 0 l 1
 534 0 l 1
 538 30 l 5
 600 40 l 5
 633 280 l 2
 636 303 639 324 639 343 c 0
 639 383 627 410 578 410 c 3
 518 410 473 350 470 330 c 2
 430 40 l 5
 488 30 l 5
 484 0 l 1
 285 0 l 1
 289 30 l 5
 351 40 l 5
 384 280 l 2
 387 304 390 326 390 344 c 0
 390 385 377 410 329 410 c 3
 269 410 224 350 221 330 c 2
 181 40 l 5
 239 30 l 5
 235 0 l 1
 35 0 l 1
 39 30 l 5
 101 40 l 5
 148 380 l 1
 81 400 l 1
 84 420 l 1
 166 435 198 445 230 460 c 1
 240 460 l 1
 231 400 l 1
 231 400 286 460 377 460 c 3
 467 460 469 421 473 392 c 1
EndSplineSet
EndChar

StartChar: n
Encoding: 110 110 37
Width: 515
VWidth: 838
Flags: HMW
AnchorPoint: "upper" 337 510 basechar 0
LayerCount: 2
Back
SplineSet
95 380 m 1
 35 400 l 1
 35 420 l 1
 115 435 135 445 165 460 c 1
 175 460 l 1
 175 400 l 1
 175 400 224 460 285 460 c 3
 314 460 340 439 340 410 c 3
 340 383 318 360 290 360 c 3
 262 360 256 390 230 390 c 3
 205 390 175 350 175 330 c 2
 175 30 l 1
 235 20 l 1
 235 0 l 1
 35 0 l 1
 35 20 l 1
 95 30 l 1
 95 380 l 1
EndSplineSet
Fore
SplineSet
240 460 m 1
 231 400 l 1
 231 400 286 460 387 460 c 3
 464 460 484 434 484 377 c 0
 484 355 481 329 477 298 c 2
 441 40 l 5
 499 30 l 5
 495 0 l 1
 295 0 l 1
 299 30 l 5
 361 40 l 5
 394 280 l 2
 397 303 400 324 400 343 c 0
 400 383 388 410 339 410 c 3
 269 410 224 350 221 330 c 2
 181 40 l 5
 239 30 l 5
 235 0 l 1
 35 0 l 1
 39 30 l 5
 101 40 l 5
 148 380 l 1
 81 400 l 1
 84 420 l 1
 166 435 198 445 230 460 c 1
 240 460 l 1
EndSplineSet
EndChar

StartChar: K
Encoding: 75 75 38
Width: 600
VWidth: 838
Flags: HMW
LayerCount: 2
Back
SplineSet
507 320 m 1
 190 320 l 1
 190 35 l 1
 265 20 l 1
 265 0 l 1
 25 0 l 1
 25 20 l 1
 100 35 l 1
 100 615 l 1
 24 630 l 1
 24 651 l 1
 265 651 l 1
 265 630 l 1
 190 615 l 1
 190 380 l 1
 507 380 l 1
 507 615 l 1
 431 631 l 1
 431 651 l 1
 669 651 l 1
 669 630 l 1
 595 615 l 1
 595 35 l 5
 669 18 l 5
 669 0 l 5
 431 0 l 5
 431 19 l 5
 507 35 l 5
 507 320 l 1
EndSplineSet
Fore
SplineSet
505 45 m 1
 584 30 l 5
 580 0 l 1
 436 0 l 1
 290 323 l 1
 227 260 l 1
 196 45 l 1
 269 30 l 1
 265 0 l 1
 25 0 l 1
 29 30 l 1
 106 45 l 1
 185 605 l 1
 112 620 l 1
 116 650 l 1
 356 650 l 1
 352 620 l 1
 275 605 l 1
 239 350 l 1
 474 580 l 2
 483 589 488 596 488 605 c 0
 488 620 468 630 441 630 c 1
 443 650 l 1
 653 650 l 1
 651 630 l 1
 611 630 584 610 554 580 c 2
 353 384 l 1
 505 45 l 1
EndSplineSet
EndChar

StartChar: M
Encoding: 77 77 39
Width: 850
VWidth: 838
Flags: HMW
LayerCount: 2
Fore
SplineSet
464 177 m 1
 719 650 l 1
 916 650 l 1
 912 620 l 1
 835 605 l 1
 756 45 l 5
 829 30 l 5
 825 0 l 1
 585 0 l 1
 589 30 l 5
 666 45 l 5
 738 555 l 1
 438 0 l 1
 413 0 l 1
 258 555 l 1
 186 45 l 5
 259 30 l 5
 255 0 l 1
 25 0 l 1
 29 30 l 5
 106 45 l 5
 185 605 l 1
 112 620 l 1
 116 650 l 1
 331 650 l 1
 464 177 l 1
EndSplineSet
EndChar

StartChar: N
Encoding: 78 78 40
Width: 700
VWidth: 838
Flags: HMW
AnchorPoint: "upper" 448 700 basechar 0
LayerCount: 2
Fore
SplineSet
615 0 m 1
 575 0 l 1
 259 564 l 1
 186 45 l 1
 259 30 l 1
 255 0 l 1
 25 0 l 1
 29 30 l 1
 106 45 l 1
 185 605 l 5
 112 620 l 5
 116 650 l 1
 311 650 l 1
 555 214 l 1
 610 605 l 5
 537 620 l 5
 541 650 l 1
 781 650 l 1
 777 620 l 5
 700 605 l 5
 615 0 l 1
EndSplineSet
EndChar

StartChar: T
Encoding: 84 84 41
Width: 640
VWidth: 838
Flags: HMW
LayerCount: 2
Fore
SplineSet
204 30 m 5
 281 45 l 5
 358 590 l 1
 183 590 l 1
 142 548 124 525 96 470 c 1
 76 470 l 1
 131 650 l 1
 691 650 l 1
 696 470 l 1
 676 470 l 1
 664 525 652 548 623 590 c 1
 448 590 l 1
 371 45 l 5
 444 30 l 5
 440 0 l 1
 200 0 l 1
 204 30 l 5
EndSplineSet
EndChar

StartChar: U
Encoding: 85 85 42
Width: 630
VWidth: 838
Flags: HMW
AnchorPoint: "upper" 423 700 basechar 0
LayerCount: 2
Fore
SplineSet
212 191 m 2
 210 176 209 162 209 149 c 0
 209 73 245 31 330 31 c 3
 469 31 480 108 500 252 c 2
 550 605 l 5
 477 620 l 5
 481 650 l 1
 711 650 l 1
 707 620 l 5
 630 605 l 5
 575 217 l 2
 554 65 471 -9 321 -9 c 3
 211 -9 132 35 121 122 c 0
 120 130 120 139 120 150 c 0
 120 165 121 184 124 204 c 2
 180 605 l 5
 107 620 l 5
 111 650 l 1
 351 650 l 1
 347 620 l 5
 270 605 l 5
 212 191 l 2
EndSplineSet
EndChar

StartChar: V
Encoding: 86 86 43
Width: 594
VWidth: 838
Flags: HMW
LayerCount: 2
Fore
SplineSet
170 570 m 2
 163 600 147 620 107 620 c 1
 111 650 l 1
 321 650 l 1
 317 620 l 1
 285 620 262 608 259 586 c 0
 258 581 259 576 260 570 c 2
 344 200 l 1
 524 570 l 2
 528 578 531 583 531 591 c 0
 531 610 512 620 481 620 c 1
 485 650 l 1
 665 650 l 1
 661 620 l 1
 621 620 599 600 584 570 c 2
 302 -10 l 1
 170 570 l 2
EndSplineSet
EndChar

StartChar: W
Encoding: 87 87 44
Width: 894
VWidth: 838
Flags: HMW
LayerCount: 2
Fore
SplineSet
470 570 m 2
 463 600 447 620 407 620 c 1
 411 650 l 1
 621 650 l 1
 617 620 l 1
 585 620 562 608 559 586 c 0
 558 581 559 576 560 570 c 2
 644 200 l 1
 824 570 l 2
 828 578 831 583 831 591 c 0
 831 610 812 620 781 620 c 1
 785 650 l 1
 965 650 l 1
 961 620 l 1
 921 620 899 600 884 570 c 2
 602 -10 l 1
 506 409 l 1
 302 -10 l 1
 170 570 l 2
 163 600 147 620 107 620 c 1
 111 650 l 1
 321 650 l 1
 317 620 l 1
 285 620 262 608 259 586 c 0
 258 581 259 576 260 570 c 2
 344 200 l 1
 487 493 l 1
 470 570 l 2
EndSplineSet
EndChar

StartChar: Y
Encoding: 89 89 45
Width: 600
VWidth: 838
Flags: HMW
AnchorPoint: "upper" 413 700 basechar 0
LayerCount: 2
Fore
SplineSet
170 30 m 1
 262 45 l 1
 295 279 l 1
 170 570 l 2
 157 600 147 620 107 620 c 1
 111 650 l 1
 321 650 l 1
 317 620 l 1
 285 620 260 607 257 587 c 0
 256 582 258 576 260 570 c 2
 365 328 l 1
 530 570 l 2
 535 577 538 582 538 590 c 0
 538 608 517 620 487 620 c 1
 491 650 l 1
 671 650 l 1
 667 620 l 1
 627 620 610 600 590 570 c 2
 383 264 l 1
 352 45 l 1
 440 30 l 1
 436 0 l 1
 166 0 l 1
 170 30 l 1
EndSplineSet
EndChar

StartChar: P
Encoding: 80 80 46
Width: 544
VWidth: 838
Flags: HMW
LayerCount: 2
Fore
SplineSet
116 650 m 1
 383 650 l 2
 485 650 557 610 579 540 c 0
 584 524 586 508 586 491 c 0
 586 481 586 471 584 459 c 0
 571 364 496 312 415 292 c 0
 385 285 351 281 315 281 c 2
 229 281 l 1
 196 45 l 1
 269 30 l 1
 265 0 l 1
 25 0 l 1
 29 30 l 1
 106 45 l 1
 185 605 l 1
 112 620 l 1
 116 650 l 1
237 336 m 1
 299 336 l 2
 409 336 473 382 485 467 c 0
 487 479 487 491 487 501 c 0
 487 576 441 600 351 600 c 2
 274 600 l 1
 237 336 l 1
EndSplineSet
EndChar

StartChar: R
Encoding: 82 82 47
Width: 619
VWidth: 838
Flags: HMW
LayerCount: 2
Back
SplineSet
26 650 m 5
 293 650 l 6
 395 650 472 610 504 540 c 4
 515 515 520 490 520 459 c 7
 520 364 453 312 375 292 c 4
 346 285 313 281 277 281 c 6
 191 281 l 5
 191 35 l 5
 266 20 l 5
 266 0 l 5
 26 0 l 5
 26 20 l 5
 101 35 l 5
 101 615 l 5
 26 630 l 5
 26 650 l 5
191 336 m 5
 253 336 l 6
 363 336 420 382 420 467 c 7
 420 569 371 601 268 601 c 6
 191 601 l 5
 191 336 l 5
EndSplineSet
Fore
SplineSet
321 281 m 1
 230 281 l 1
 197 45 l 1
 270 30 l 1
 266 0 l 1
 25 0 l 1
 29 30 l 1
 107 45 l 1
 186 605 l 1
 113 620 l 1
 117 650 l 1
 375 650 l 2
 475 650 548 614 571 546 c 0
 576 531 579 513 579 495 c 0
 579 486 578 477 577 467 c 0
 564 374 492 310 409 290 c 1
 524 45 l 1
 603 30 l 1
 599 0 l 1
 449 0 l 1
 321 281 l 1
292 336 m 2
 396 336 463 372 477 472 c 0
 479 483 480 494 480 503 c 0
 480 577 432 600 343 600 c 2
 275 600 l 1
 238 336 l 1
 292 336 l 2
EndSplineSet
EndChar

StartChar: S
Encoding: 83 83 48
Width: 461
VWidth: 838
Flags: HMW
LayerCount: 2
Back
SplineSet
166 -10 m 7
 -24 -10 -139 140 -139 330 c 7
 -139 520 -24 660 166 660 c 7
 281 660 347 605 347 605 c 5
 392 650 l 5
 412 650 l 5
 412 460 l 5
 382 460 l 5
 382 460 316 600 166 600 c 7
 16 600 -34 480 -34 330 c 7
 -34 180 16 45 166 45 c 7
 316 45 377 154 377 154 c 5
 412 134 l 5
 412 134 356 -10 166 -10 c 7
EndSplineSet
Fore
SplineSet
231 50 m 3
 302 50 362 86 372 155 c 0
 372 158 373 162 373 165 c 0
 373 231 282 271 236 298 c 0
 177 331 106 370 106 457 c 0
 106 465 107 473 108 482 c 0
 123 589 214 659 321 659 c 3
 379 659 414 636 443 605 c 1
 474 650 l 1
 489 650 l 1
 463 460 l 1
 438 460 l 1
 430 540 402 607 317 607 c 3
 255 607 210 573 201 512 c 0
 200 507 200 502 200 497 c 0
 200 465 218 452 237 433 c 0
 308 364 454 344 454 211 c 0
 454 202 453 192 452 182 c 0
 436 69 338 -10 226 -10 c 3
 169 -10 134 10 98 35 c 1
 58 0 l 1
 43 0 l 1
 71 200 l 1
 91 200 l 1
 101 103 129 50 231 50 c 3
EndSplineSet
EndChar

StartChar: asciitilde
Encoding: 126 126 49
Width: 490
VWidth: 838
Flags: HMW
LayerCount: 2
Fore
SplineSet
184 245 m 3
 149 245 132 230 118 200 c 1
 95 210 l 1
 102 260 146 295 206 295 c 3
 276 295 305 250 375 250 c 3
 410 250 427 265 441 295 c 1
 465 285 l 1
 458 235 413 200 353 200 c 3
 283 200 254 245 184 245 c 3
EndSplineSet
EndChar

StartChar: bar
Encoding: 124 124 50
Width: 220
VWidth: 838
Flags: HMW
LayerCount: 2
Fore
SplineSet
69 -75 m 5
 178 700 l 1
 238 700 l 1
 129 -75 l 5
 69 -75 l 5
EndSplineSet
EndChar

StartChar: braceleft
Encoding: 123 123 51
Width: 285
VWidth: 838
Flags: HMW
LayerCount: 2
Fore
SplineSet
160 -4 m 0
 159 -14 158 -23 158 -31 c 0
 158 -62 170 -80 205 -80 c 3
 216 -80 229 -78 240 -75 c 1
 241 -100 l 1
 220 -107 205 -111 180 -111 c 3
 116 -111 86 -89 86 -35 c 0
 86 -27 87 -18 88 -8 c 0
 99 68 129 132 140 210 c 0
 142 225 143 239 143 251 c 0
 143 295 127 317 75 317 c 1
 77 335 l 1
 139 335 162 371 171 436 c 0
 174 459 175 482 175 504 c 0
 175 527 174 548 174 571 c 0
 174 592 175 614 178 636 c 0
 188 706 235 743 306 743 c 3
 328 743 343 737 358 731 c 1
 351 710 l 1
 335 712 330 714 316 714 c 3
 276 714 256 676 250 634 c 0
 247 613 246 592 246 571 c 0
 246 548 247 525 247 502 c 0
 247 481 246 459 243 437 c 0
 235 379 210 342 168 326 c 1
 167 323 l 1
 199 309 215 288 215 248 c 0
 215 239 215 229 213 218 c 0
 202 143 171 71 160 -4 c 0
EndSplineSet
EndChar

StartChar: braceright
Encoding: 125 125 52
Width: 285
VWidth: 838
Flags: HMW
LayerCount: 2
Fore
SplineSet
196 -8 m 4
 186 -82 148 -111 74 -111 c 7
 49 -111 35 -107 16 -100 c 5
 24 -75 l 5
 35 -78 46 -80 58 -80 c 7
 102 -80 117 -52 124 -4 c 4
 128 28 129 60 129 92 c 0
 129 100 129 109 129 117 c 0
 129 150 130 184 135 218 c 0
 143 278 165 306 209 323 c 1
 210 326 l 1
 179 339 163 366 163 408 c 0
 163 417 164 427 165 437 c 0
 175 505 205 568 214 634 c 0
 215 641 216 648 216 655 c 0
 216 688 202 714 169 714 c 3
 155 714 151 712 135 710 c 1
 133 731 l 1
 150 737 166 743 188 743 c 3
 251 743 288 713 288 657 c 0
 288 650 287 643 286 636 c 0
 276 568 247 505 237 436 c 0
 235 424 235 412 235 402 c 0
 235 359 252 335 302 335 c 1
 300 317 l 1
 234 317 216 280 206 210 c 0
 202 179 200 151 200 123 c 0
 200 107 201 91 201 75 c 0
 201 48 200 21 196 -8 c 4
EndSplineSet
EndChar

StartChar: Z
Encoding: 90 90 53
Width: 531
VWidth: 838
Flags: HMW
LayerCount: 2
Fore
SplineSet
419 60 m 1
 460 102 478 125 506 180 c 1
 526 180 l 1
 471 0 l 1
 20 0 l 1
 23 20 l 1
 468 590 l 1
 193 590 l 1
 152 548 134 525 106 470 c 1
 86 470 l 1
 141 650 l 1
 591 650 l 1
 589 630 l 1
 144 60 l 1
 419 60 l 1
EndSplineSet
EndChar

StartChar: X
Encoding: 88 88 54
Width: 623
VWidth: 838
Flags: HMW
LayerCount: 2
Fore
SplineSet
500 620 m 1
 504 650 l 1
 683 650 l 1
 679 620 l 1
 639 620 619 600 593 570 c 2
 396 340 l 1
 534 80 l 2
 550 50 557 30 607 30 c 1
 603 0 l 1
 383 0 l 1
 387 30 l 1
 424 30 446 41 449 59 c 0
 450 65 448 72 444 80 c 2
 340 276 l 1
 171 80 l 2
 163 71 159 64 159 55 c 0
 159 40 177 30 204 30 c 1
 200 0 l 1
 20 0 l 1
 24 30 l 1
 64 30 86 50 111 80 c 2
 317 319 l 1
 186 570 l 2
 170 600 163 620 113 620 c 1
 117 650 l 1
 337 650 l 1
 333 620 l 1
 296 620 274 609 271 591 c 0
 270 585 272 578 276 570 c 2
 373 385 l 1
 533 570 l 2
 541 579 545 586 545 595 c 0
 545 610 527 620 500 620 c 1
EndSplineSet
EndChar

StartChar: equal
Encoding: 61 61 55
Width: 480
VWidth: 838
Flags: HMW
LayerCount: 2
Fore
SplineSet
118 341 m 1
 124 381 l 1
 464 381 l 1
 458 341 l 1
 118 341 l 1
98 201 m 1
 104 241 l 1
 444 241 l 1
 438 201 l 1
 98 201 l 1
EndSplineSet
EndChar

StartChar: less
Encoding: 60 60 56
Width: 438
VWidth: 838
Flags: HMW
LayerCount: 2
Fore
SplineSet
72 264 m 1
 78 308 l 1
 444 471 l 1
 437 420 l 1
 137 291 l 1
 136 287 l 1
 400 157 l 1
 392 102 l 1
 72 264 l 1
EndSplineSet
EndChar

StartChar: greater
Encoding: 62 62 57
Width: 437
VWidth: 838
Flags: HMW
LayerCount: 2
Fore
SplineSet
75 106 m 1
 82 157 l 1
 382 287 l 1
 383 291 l 1
 119 420 l 1
 127 475 l 1
 446 312 l 1
 440 269 l 1
 75 106 l 1
EndSplineSet
EndChar

StartChar: at
Encoding: 64 64 58
Width: 731
VWidth: 838
Flags: HMW
LayerCount: 2
Fore
SplineSet
361 -82 m 0
 425 -82 473 -72 514 -49 c 1
 520 -73 l 1
 460 -101 398 -115 335 -115 c 0
 195 -115 111 -55 80 42 c 0
 73 63 70 87 70 114 c 0
 70 133 72 154 75 176 c 0
 105 388 269 541 480 541 c 0
 611 541 691 475 715 381 c 0
 720 359 723 337 723 314 c 0
 723 303 722 292 720 280 c 0
 710 209 677 148 639 106 c 0
 605 68 554 31 492 31 c 0
 447 31 414 52 414 90 c 0
 414 93 415 97 415 100 c 0
 416 110 416 115 422 120 c 1
 419 121 l 1
 394 92 369 71 345 60 c 0
 321 49 300 42 279 42 c 0
 229 42 205 73 205 119 c 0
 205 126 206 133 207 141 c 0
 216 207 258 270 296 309 c 0
 333 346 390 391 452 391 c 0
 485 391 503 377 512 357 c 1
 516 357 l 1
 530 391 l 1
 597 391 l 1
 495 148 l 2
 489 137 483 119 481 105 c 0
 481 102 480 100 480 97 c 0
 480 79 491 73 511 73 c 0
 554 73 591 102 615 131 c 0
 645 166 671 218 679 278 c 0
 681 292 682 305 682 318 c 0
 682 411 630 467 555 491 c 0
 527 500 498 504 467 504 c 0
 367 504 289 459 233 403 c 0
 178 348 134 270 121 175 c 0
 119 158 117 142 117 126 c 0
 117 77 128 35 150 3 c 0
 187 -52 257 -82 361 -82 c 0
280 144 m 0
 279 137 279 129 279 123 c 0
 279 101 286 88 308 88 c 0
 326 88 343 94 364 110 c 0
 401 138 434 183 459 233 c 0
 470 257 477 280 481 305 c 0
 482 311 482 316 482 321 c 0
 482 341 474 354 451 354 c 0
 435 354 417 348 398 336 c 0
 359 310 327 268 304 220 c 0
 292 195 284 170 280 144 c 0
EndSplineSet
EndChar

StartChar: colon
Encoding: 58 58 59
Width: 220
VWidth: 838
Flags: HMW
LayerCount: 2
Fore
SplineSet
109 -10 m 7
 81 -10 61 12 61 38 c 0
 61 40 61 43 61 45 c 4
 65 77 92 100 124 100 c 7
 154 100 172 83 172 55 c 0
 172 52 171 48 171 45 c 4
 167 14 141 -10 109 -10 c 7
149 281 m 7
 121 281 102 303 102 329 c 0
 102 331 102 334 102 336 c 4
 106 368 133 391 165 391 c 7
 195 391 213 374 213 346 c 0
 213 343 212 339 212 336 c 4
 208 305 181 281 149 281 c 7
EndSplineSet
EndChar

StartChar: semicolon
Encoding: 59 59 60
Width: 220
VWidth: 838
Flags: HMW
LayerCount: 2
Back
SplineSet
110 -10 m 7
 80 -10 55 16 55 45 c 7
 55 77 78 100 110 100 c 7
 143 100 165 78 165 45 c 7
 165 14 142 -10 110 -10 c 7
110 281 m 7
 80 281 55 307 55 336 c 7
 55 368 78 391 110 391 c 7
 143 391 165 369 165 336 c 7
 165 305 142 281 110 281 c 7
EndSplineSet
Fore
SplineSet
149 281 m 3
 121 281 102 303 102 329 c 0
 102 331 102 334 102 336 c 0
 106 368 133 391 165 391 c 3
 195 391 213 374 213 346 c 0
 213 343 212 339 212 336 c 0
 208 305 181 281 149 281 c 3
124 100 m 3
 157 100 169 74 169 41 c 0
 169 34 169 27 168 19 c 0
 158 -51 117 -99 65 -132 c 1
 52 -108 l 1
 70 -97 84 -83 95 -70 c 0
 107 -56 114 -44 114 -32 c 0
 114 -16 97 -9 87 -2 c 0
 74 6 61 16 61 37 c 0
 61 39 61 42 61 45 c 0
 65 77 92 100 124 100 c 3
EndSplineSet
EndChar

StartChar: Q
Encoding: 81 81 61
Width: 705
VWidth: 838
Flags: HMW
LayerCount: 2
Back
SplineSet
345 660 m 7
 535 660 650 520 650 330 c 7
 650 140 535 -10 345 -10 c 7
 155 -10 40 140 40 330 c 7
 40 520 155 660 345 660 c 7
145 330 m 7
 145 180 195 45 345 45 c 7
 495 45 545 180 545 330 c 7
 545 480 495 600 345 600 c 7
 195 600 145 480 145 330 c 7
EndSplineSet
Fore
SplineSet
191 330 m 0
 187 303 185 276 185 251 c 0
 185 136 228 45 351 45 c 3
 501 45 570 180 591 330 c 0
 595 356 597 382 597 406 c 0
 597 519 553 600 429 600 c 3
 279 600 212 480 191 330 c 0
438 660 m 3
 607 660 701 549 701 391 c 0
 701 371 699 351 696 330 c 0
 681 223 633 130 559 68 c 1
 564 51 591 13 666 -26 c 1
 631 -75 l 1
 473 -51 464 -10 344 -10 c 3
 175 -10 82 108 82 268 c 0
 82 288 83 309 86 330 c 0
 113 520 248 660 438 660 c 3
EndSplineSet
EndChar

StartChar: plus
Encoding: 43 43 62
Width: 530
VWidth: 838
Flags: HMW
LayerCount: 2
Fore
SplineSet
97 230 m 1
 103 270 l 1
 283 270 l 1
 308 450 l 1
 348 450 l 1
 323 270 l 1
 503 270 l 1
 497 230 l 1
 317 230 l 1
 292 50 l 1
 252 50 l 1
 277 230 l 1
 97 230 l 1
EndSplineSet
EndChar

StartChar: comma
Encoding: 44 44 63
Width: 220
VWidth: 838
Flags: HMW
LayerCount: 2
Fore
SplineSet
124 100 m 7
 157 100 169 74 169 41 c 0
 169 34 169 27 168 19 c 4
 158 -51 117 -99 65 -132 c 5
 52 -108 l 5
 70 -97 84 -83 95 -70 c 4
 107 -56 114 -44 114 -32 c 0
 114 -16 97 -9 87 -2 c 4
 74 6 61 16 61 37 c 0
 61 39 61 42 61 45 c 4
 65 77 92 100 124 100 c 7
EndSplineSet
EndChar

StartChar: quotesingle
Encoding: 39 39 64
Width: 149
VWidth: 838
Flags: HMW
LayerCount: 2
Fore
SplineSet
173 701 m 3
 199 701 212 686 212 663 c 0
 212 660 211 657 211 654 c 0
 207 624 193 593 183 563 c 0
 170 523 156 477 148 429 c 1
 122 429 l 1
 125 452 126 475 126 496 c 0
 126 538 122 576 120 613 c 0
 120 618 120 622 120 626 c 0
 120 635 120 643 121 650 c 0
 125 680 144 701 173 701 c 3
EndSplineSet
EndChar

StartChar: quotedbl
Encoding: 34 34 65
Width: 277
VWidth: 838
Flags: HMW
LayerCount: 2
Fore
SplineSet
173 701 m 3
 199 701 212 686 212 663 c 0
 212 660 211 657 211 654 c 0
 207 624 193 593 183 563 c 0
 170 523 156 477 148 429 c 1
 122 429 l 1
 125 452 126 475 126 496 c 0
 126 538 122 576 120 613 c 0
 120 618 120 622 120 626 c 0
 120 635 120 643 121 650 c 0
 125 680 144 701 173 701 c 3
301 701 m 3
 327 701 340 686 340 663 c 0
 340 660 339 657 339 654 c 0
 335 624 320 592 310 562 c 0
 297 522 283 477 275 429 c 1
 250 429 l 1
 253 452 254 475 254 496 c 0
 254 538 250 576 248 613 c 0
 248 618 248 622 248 626 c 0
 248 635 248 643 249 650 c 0
 253 680 272 701 301 701 c 3
EndSplineSet
EndChar

StartChar: numbersign
Encoding: 35 35 66
Width: 568
VWidth: 838
Flags: HMW
LayerCount: 2
Fore
SplineSet
519 588 m 1
 476 445 l 1
 596 445 l 1
 579 398 l 1
 462 398 l 1
 424 272 l 1
 541 272 l 1
 523 224 l 1
 409 224 l 1
 369 83 l 1
 321 83 l 1
 362 224 l 1
 237 224 l 1
 196 83 l 1
 147 83 l 1
 188 224 l 1
 66 224 l 1
 85 272 l 1
 202 272 l 1
 241 398 l 1
 123 398 l 1
 140 445 l 1
 255 445 l 1
 298 588 l 1
 347 588 l 1
 304 445 l 1
 429 445 l 1
 472 588 l 1
 519 588 l 1
251 272 m 1
 376 272 l 1
 415 398 l 1
 290 398 l 1
 251 272 l 1
EndSplineSet
EndChar

StartChar: dollar
Encoding: 36 36 67
Width: 444
VWidth: 838
Flags: HMW
LayerCount: 2
Back
SplineSet
246 56 m 0
 317 56 371 91 371 160 c 3
 371 201 349 211 323 233 c 0
 294 258 253 279 216 298 c 0
 159 328 105 358 76 417 c 0
 67 435 63 458 63 482 c 3
 63 567 114 621 176 645 c 0
 199 654 222 659 249 659 c 3
 307 659 343 638 376 607 c 1
 403 651 l 1
 420 651 l 1
 427 466 l 1
 405 466 l 1
 392 520 372 544 348 569 c 0
 324 594 293 607 254 607 c 3
 192 607 151 572 151 511 c 3
 151 467 173 455 198 433 c 0
 227 408 265 390 300 371 c 0
 356 341 407 310 435 252 c 0
 443 234 448 212 448 187 c 3
 448 128 422 82 390 52 c 0
 357 22 309 -3 249 -3 c 0
 192 -3 155 15 115 39 c 1
 81 5 l 1
 64 5 l 1
 49 220 l 1
 70 225 l 1
 87 157 108 131 136 101 c 0
 164 71 200 56 246 56 c 0
EndSplineSet
Fore
SplineSet
252 34 m 1
 301 45 338 81 346 138 c 0
 347 145 348 151 348 157 c 0
 348 177 343 195 333 210 c 0
 320 230 305 244 284 260 c 1
 252 34 l 1
352 749 m 1
 340 660 l 1
 401 657 448 631 467 591 c 0
 470 582 473 570 473 559 c 0
 473 556 472 553 472 550 c 0
 468 521 447 500 418 500 c 3
 383 500 379 528 376 557 c 0
 372 590 364 613 334 622 c 1
 301 383 l 1
 354 351 405 319 426 259 c 0
 430 246 433 232 433 216 c 0
 433 207 432 199 431 189 c 0
 419 107 369 47 312 18 c 0
 290 7 270 -1 246 -5 c 1
 236 -81 l 1
 185 -81 l 1
 195 -5 l 1
 132 -1 84 25 63 64 c 0
 57 74 54 84 54 96 c 0
 54 99 55 103 55 106 c 0
 59 135 78 156 107 156 c 3
 162 156 142 85 163 56 c 0
 170 45 184 38 201 34 c 1
 237 292 l 1
 187 322 140 354 120 410 c 0
 116 423 113 437 113 453 c 0
 113 461 114 470 115 479 c 0
 126 559 175 613 234 640 c 0
 251 648 268 653 288 657 c 1
 301 749 l 1
 352 749 l 1
283 620 m 1
 243 608 216 574 209 526 c 0
 208 520 208 514 208 508 c 0
 208 488 212 471 221 456 c 0
 229 441 242 428 255 417 c 1
 283 620 l 1
EndSplineSet
EndChar

StartChar: percent
Encoding: 37 37 68
Width: 677
VWidth: 838
Flags: HMW
LayerCount: 2
Fore
SplineSet
250 628 m 3
 212 628 200 590 191 552 c 0
 186 532 181 507 177 478 c 0
 173 446 169 419 169 396 c 0
 169 383 171 372 173 361 c 0
 177 342 186 332 209 332 c 3
 248 332 260 368 269 406 c 0
 274 426 278 449 282 478 c 0
 287 510 290 539 290 563 c 0
 290 576 289 587 287 598 c 0
 284 618 274 628 250 628 c 3
564 348 m 3
 606 348 634 323 650 295 c 0
 664 271 673 240 673 203 c 0
 673 191 672 179 670 167 c 0
 659 91 620 32 567 4 c 0
 550 -5 533 -10 514 -10 c 3
 472 -10 443 13 427 40 c 0
 413 63 404 95 404 132 c 0
 404 143 404 155 406 167 c 0
 417 245 457 305 510 334 c 0
 527 343 545 348 564 348 c 3
560 318 m 3
 522 318 508 280 499 242 c 0
 494 222 491 197 487 168 c 0
 482 135 478 107 478 83 c 0
 478 71 479 61 481 51 c 0
 485 32 495 22 518 22 c 3
 557 22 568 57 577 95 c 0
 582 115 587 139 591 168 c 0
 596 200 599 229 599 253 c 0
 599 266 597 277 595 288 c 0
 592 308 584 318 560 318 c 3
563 602 m 1
 527 583 494 579 454 579 c 3
 418 579 385 579 345 595 c 1
 345 595 357 571 360 549 c 0
 362 535 364 519 364 503 c 0
 364 494 363 486 362 477 c 0
 351 401 311 344 258 316 c 0
 241 307 223 302 204 302 c 3
 162 302 134 326 118 353 c 0
 104 376 95 407 95 443 c 0
 95 454 95 465 97 477 c 0
 108 555 149 617 202 646 c 0
 219 655 236 660 255 660 c 3
 323 660 387 604 451 604 c 3
 502 604 552 619 599 650 c 1
 657 650 l 1
 169 0 l 1
 111 0 l 1
 563 602 l 1
EndSplineSet
EndChar

StartChar: period
Encoding: 46 46 69
Width: 200
VWidth: 838
Flags: HMW
LayerCount: 2
Fore
SplineSet
99 -10 m 7
 71 -10 51 12 51 38 c 0
 51 40 51 43 51 45 c 4
 55 77 82 100 114 100 c 7
 144 100 162 83 162 55 c 0
 162 52 161 48 161 45 c 4
 157 14 131 -10 99 -10 c 7
EndSplineSet
EndChar

StartChar: exclam
Encoding: 33 33 71
Width: 220
VWidth: 838
Flags: HMW
LayerCount: 2
Fore
SplineSet
115 150 m 1
 123 248 127 347 130 436 c 0
 132 507 131 576 139 634 c 0
 144 672 169 700 208 700 c 0
 243 700 260 679 260 648 c 0
 260 644 260 639 259 634 c 0
 251 577 230 509 212 440 c 0
 189 350 165 249 145 150 c 1
 115 150 l 1
108 -10 m 3
 80 -10 60 12 60 38 c 0
 60 40 60 43 60 45 c 0
 64 77 91 100 123 100 c 3
 153 100 171 83 171 55 c 0
 171 52 170 48 170 45 c 0
 166 14 140 -10 108 -10 c 3
EndSplineSet
EndChar

StartChar: zero
Encoding: 48 48 72
Width: 527
VWidth: 838
Flags: HMW
LayerCount: 2
Fore
SplineSet
355 660 m 3
 428 660 471 613 497 563 c 0
 519 519 533 461 533 395 c 0
 533 372 531 348 528 324 c 0
 509 187 442 68 350 15 c 0
 321 -2 292 -10 261 -10 c 3
 188 -10 144 35 119 84 c 0
 98 126 85 183 85 248 c 0
 85 272 86 297 90 322 c 0
 110 462 173 578 265 633 c 0
 295 651 324 660 355 660 c 3
348 615 m 3
 297 615 272 587 250 547 c 0
 218 487 204 417 191 325 c 0
 184 272 178 225 178 183 c 0
 178 153 180 126 187 101 c 0
 198 62 216 35 267 35 c 3
 318 35 346 62 367 101 c 0
 399 160 415 234 428 325 c 0
 435 376 439 420 439 460 c 0
 439 491 437 520 430 546 c 0
 420 586 399 615 348 615 c 3
EndSplineSet
EndChar

StartChar: one
Encoding: 49 49 73
Width: 375
VWidth: 838
Flags: HMW
LayerCount: 2
Fore
SplineSet
117 550 m 1
 189 573 255 610 315 660 c 1
 331 650 l 1
 246 45 l 5
 354 30 l 5
 350 0 l 1
 40 0 l 1
 44 30 l 5
 156 45 l 5
 224 530 l 1
 114 530 l 1
 117 550 l 1
EndSplineSet
EndChar

StartChar: two
Encoding: 50 50 74
Width: 491
VWidth: 838
Flags: HMW
LayerCount: 2
Fore
SplineSet
472 75 m 1
 426 0 l 1
 38 0 l 1
 33 20 l 1
 97 74 156 126 200 168 c 0
 244 210 280 249 309 283 c 0
 353 335 393 390 403 462 c 0
 404 471 405 480 405 489 c 0
 405 549 375 595 313 595 c 0
 248 595 192 544 160 497 c 1
 141 507 l 1
 175 571 228 624 295 648 c 0
 316 655 338 659 359 659 c 0
 412 659 448 636 471 607 c 0
 490 584 504 551 504 510 c 0
 504 500 502 490 501 479 c 0
 491 407 452 355 408 305 c 0
 334 222 256 148 156 75 c 1
 472 75 l 1
EndSplineSet
EndChar

StartChar: three
Encoding: 51 51 75
Width: 461
VWidth: 838
Flags: HMW
LayerCount: 2
Fore
SplineSet
238 320 m 0
 222 320 207 318 190 316 c 1
 189 339 l 1
 237 359 274 384 303 413 c 0
 332 442 349 475 354 509 c 0
 355 515 355 521 355 527 c 0
 355 569 332 600 291 600 c 3
 226 600 174 551 146 500 c 1
 127 505 l 1
 150 574 204 626 267 649 c 0
 288 656 310 660 333 660 c 3
 395 660 434 630 448 588 c 0
 451 577 452 566 452 555 c 0
 452 550 452 545 451 539 c 0
 447 510 434 484 411 458 c 0
 388 432 360 407 324 387 c 1
 401 381 449 328 449 249 c 0
 449 239 448 229 447 219 c 0
 437 151 398 90 358 54 c 0
 318 18 262 -10 194 -10 c 3
 126 -10 77 24 58 66 c 0
 53 77 50 89 50 101 c 0
 50 104 50 107 50 110 c 0
 54 141 76 162 106 162 c 0
 143 162 149 127 154 98 c 0
 160 65 174 35 218 35 c 3
 278 35 321 79 345 123 c 0
 353 140 359 156 362 176 c 0
 363 184 363 191 363 198 c 0
 363 253 332 290 292 309 c 0
 275 316 258 320 238 320 c 0
EndSplineSet
EndChar

StartChar: four
Encoding: 52 52 76
Width: 508
VWidth: 838
Flags: HMW
LayerCount: 2
Fore
SplineSet
331 185 m 1
 66 185 l 1
 58 199 l 1
 461 660 l 1
 481 651 l 1
 424 245 l 1
 502 245 l 1
 494 185 l 1
 416 185 l 1
 395 35 l 1
 468 20 l 1
 465 0 l 1
 205 0 l 1
 208 20 l 1
 310 35 l 1
 331 185 l 1
374 492 m 1
 162 245 l 1
 339 245 l 1
 374 492 l 1
EndSplineSet
EndChar

StartChar: five
Encoding: 53 53 77
Width: 466
VWidth: 838
Flags: HMW
LayerCount: 2
Fore
SplineSet
49 102 m 0
 53 132 71 151 100 151 c 0
 150 151 143 95 159 65 c 0
 167 47 185 35 215 35 c 3
 257 35 289 55 314 80 c 0
 341 107 361 147 368 194 c 0
 369 204 370 215 370 224 c 0
 370 283 343 323 299 343 c 0
 281 350 263 354 240 354 c 3
 206 354 173 344 144 322 c 1
 112 322 l 1
 202 650 l 1
 489 650 l 1
 456 574 l 1
 241 574 l 1
 196 420 l 1
 222 428 242 433 272 433 c 3
 371 433 430 382 449 312 c 0
 453 296 455 278 455 260 c 0
 455 250 454 240 453 229 c 0
 443 157 403 94 361 57 c 0
 319 20 258 -10 187 -10 c 3
 122 -10 75 21 56 61 c 0
 52 70 49 81 49 92 c 0
 49 95 49 98 49 102 c 0
EndSplineSet
EndChar

StartChar: six
Encoding: 54 54 78
Width: 499
Flags: HMW
LayerCount: 2
Back
SplineSet
153.927734375 350.391601562 m 5
 178.305664062 375.875976562 229.34375 393.985351562 279.677734375 393.985351562 c 4
 367.99609375 393.985351562 423.41015625 345.836914062 448.182617188 280.811523438 c 4
 457.125 257.337890625 461.596679688 231.348632812 461.596679688 202.846679688 c 4
 461.596679688 103.7421875 407.99609375 39.7978515625 335.428710938 11.70703125 c 4
 309.439453125 1.646484375 280.796875 -3.3837890625 249.499023438 -3.3837890625 c 4
 145.30078125 -3.3837890625 84.4755859375 53.3779296875 58.359375 133.264648438 c 4
 48.859375 162.327148438 44.1083984375 195.30078125 44.1083984375 232.1875 c 4
 44.1083984375 337.456054688 81.525390625 423.197265625 130.037109375 487.877929688 c 4
 185.637695312 562.012695312 265.131835938 621.0234375 360.158203125 656.3828125 c 5
 366.864257812 635.423828125 l 5
 313.696289062 607.067382812 263.91015625 558.200195312 227.701171875 510.09375 c 4
 195.396484375 467.171875 162.061523438 410.034179688 153.927734375 350.391601562 c 5
142.193359375 207.038085938 m 4
 142.193359375 117.658203125 173.46875 40.208984375 254.529296875 40.208984375 c 4
 329.76171875 40.208984375 361.834960938 107.133789062 361.834960938 188.594726562 c 4
 361.834960938 274.286132812 326.592773438 346.201171875 246.983398438 346.201171875 c 4
 204.919921875 346.201171875 170.579101562 326.384765625 152.252929688 300.9296875 c 5
 146.841796875 276.0390625 142.193359375 237.497070312 142.193359375 207.038085938 c 4
EndSplineSet
Fore
SplineSet
248 -9 m 3
 179 -9 133 18 104 55 c 0
 81 85 69 127 69 178 c 0
 69 195 69 212 72 231 c 0
 87 339 138 424 196 491 c 0
 263 567 353 627 454 662 c 1
 458 641 l 1
 399 611 344 563 299 514 c 0
 260 471 216 411 201 351 c 1
 231 377 284 396 335 396 c 3
 392 396 436 373 461 342 c 0
 481 316 495 281 495 236 c 0
 495 225 494 213 492 201 c 0
 483 134 452 84 411 50 c 0
 370 16 315 -9 248 -9 c 3
258 30 m 3
 335 30 377 104 389 187 c 0
 391 200 392 214 392 226 c 0
 392 295 363 347 295 347 c 3
 252 347 215 327 192 301 c 1
 182 275 173 236 169 205 c 0
 167 188 165 172 165 156 c 0
 165 86 190 30 258 30 c 3
EndSplineSet
EndChar

StartChar: seven
Encoding: 55 55 79
Width: 433
VWidth: 838
Flags: HMW
LayerCount: 2
Fore
SplineSet
183 580 m 1
 156 560 143 545 120 516 c 1
 104 525 l 1
 176 650 l 1
 498 650 l 1
 503 637 l 1
 416 485 339 342 263 178 c 0
 246 141 221 89 198 38 c 0
 183 5 165 -10 139 -10 c 3
 116 -10 103 3 103 24 c 0
 103 27 103 29 103 32 c 0
 105 43 111 55 119 71 c 0
 127 87 140 113 153 134 c 1
 407 580 l 1
 183 580 l 1
EndSplineSet
EndChar

StartChar: eight
Encoding: 56 56 80
Width: 494
VWidth: 838
Flags: HMW
LayerCount: 2
Fore
SplineSet
363 374 m 1
 407 345 437 316 455 286 c 0
 469 262 477 236 477 208 c 0
 477 200 476 193 475 185 c 0
 459 69 355 -10 239 -10 c 0
 139 -10 67 48 67 141 c 0
 67 150 68 159 69 168 c 0
 82 257 146 305 220 341 c 1
 173 375 132 411 132 475 c 0
 132 483 133 491 134 499 c 0
 148 600 238 660 340 660 c 0
 426 660 493 617 493 539 c 0
 493 532 493 525 492 518 c 0
 484 458 441 410 363 374 c 1
329 621 m 0
 270 621 225 585 217 527 c 0
 216 521 216 516 216 511 c 0
 216 448 271 418 326 391 c 1
 381 427 411 469 418 518 c 0
 419 524 419 530 419 536 c 0
 419 588 385 621 329 621 c 0
257 35 m 0
 329 35 383 78 393 149 c 0
 394 157 395 163 395 170 c 0
 395 250 326 286 254 320 c 1
 202 291 162 241 152 169 c 0
 151 159 150 150 150 141 c 0
 150 76 187 35 257 35 c 0
EndSplineSet
EndChar

StartChar: nine
Encoding: 57 57 81
Width: 503
VWidth: 838
Flags: HMW
LayerCount: 2
Fore
SplineSet
391 303 m 1
 362 278 309 259 258 259 c 3
 157 259 101 321 101 415 c 0
 101 426 101 439 103 451 c 0
 121 577 220 660 346 660 c 3
 465 660 521 585 521 474 c 0
 521 457 520 439 517 421 c 0
 502 316 442 222 384 158 c 0
 318 85 231 24 131 -10 c 1
 126 10 l 1
 183 39 241 89 284 137 c 0
 323 179 375 243 391 303 c 1
422 446 m 0
 424 463 425 479 425 494 c 0
 425 561 401 610 334 610 c 3
 259 610 217 546 205 464 c 0
 203 451 202 438 202 426 c 0
 202 360 231 315 299 315 c 3
 341 315 378 336 401 361 c 1
 410 386 418 416 422 446 c 0
EndSplineSet
EndChar

StartChar: question
Encoding: 63 63 82
Width: 433
VWidth: 838
Flags: HMW
LayerCount: 2
Fore
SplineSet
189 575 m 4
 188 571 188 568 188 565 c 0
 188 550 195 549 195 535 c 0
 195 532 195 529 194 525 c 4
 191 502 169 490 150 490 c 7
 135 490 114 496 114 524 c 0
 114 527 115 530 115 533 c 4
 126 613 205 700 323 700 c 7
 415 700 469 635 469 555 c 0
 469 547 468 538 467 529 c 4
 456 450 389 386 337 352 c 4
 289 320 252 289 243 224 c 6
 237 180 l 29
 197 180 l 29
 204 226 l 6
 210 269 224 333 297 392 c 4
 342 429 368 468 375 515 c 4
 377 531 379 547 379 562 c 0
 379 610 364 650 306 650 c 7
 231 650 193 605 189 575 c 4
191 -10 m 7
 163 -10 143 12 143 38 c 0
 143 40 143 43 143 45 c 4
 147 77 174 100 206 100 c 7
 236 100 254 83 254 55 c 0
 254 52 253 48 253 45 c 4
 249 14 223 -10 191 -10 c 7
EndSplineSet
EndChar

StartChar: uni0000
Encoding: 0 0 83
Width: 724
VWidth: 838
Flags: HMW
LayerCount: 2
Fore
SplineSet
131 650 m 1
 775 650 l 1
 684 0 l 1
 40 0 l 1
 131 650 l 1
198 580 m 1
 127 75 l 1
 620 75 l 1
 691 580 l 1
 198 580 l 1
435 518 m 0
 403 518 385 499 371 473 c 0
 350 435 343 390 335 331 c 0
 330 295 326 265 326 237 c 1
 487 471 l 2
 486 473 l 0
 480 499 467 518 435 518 c 0
438 544 m 0
 485 544 513 514 530 482 c 0
 544 455 552 420 552 379 c 0
 552 364 551 348 549 331 c 0
 537 243 497 169 437 136 c 0
 418 125 399 121 379 121 c 0
 332 121 303 149 287 180 c 0
 273 207 265 242 265 283 c 0
 265 298 267 315 269 331 c 0
 282 420 322 493 381 528 c 0
 400 539 418 544 438 544 c 0
330 197 m 2
 331 195 331 191 332 189 c 0
 338 164 351 148 383 148 c 0
 415 148 433 165 447 190 c 0
 468 227 476 273 484 331 c 0
 489 366 492 397 492 424 c 0
 492 427 492 430 492 433 c 1
 330 197 l 2
EndSplineSet
EndChar

StartChar: plusminus
Encoding: 177 177 84
Width: 530
VWidth: 838
Flags: HMW
LayerCount: 2
Fore
SplineSet
80 110 m 5
 86 150 l 5
 486 150 l 5
 480 110 l 5
 80 110 l 5
117 370 m 5
 123 410 l 5
 303 410 l 5
 328 590 l 5
 368 590 l 5
 343 410 l 5
 523 410 l 5
 517 370 l 5
 337 370 l 5
 312 190 l 5
 272 190 l 5
 297 370 l 5
 117 370 l 5
EndSplineSet
EndChar

StartChar: degree
Encoding: 176 176 87
Width: 238
VWidth: 838
Flags: HMW
LayerCount: 2
Fore
SplineSet
197 552 m 7
 158 552 128 583 128 621 c 0
 128 624 129 628 129 631 c 4
 135 677 173 710 219 710 c 7
 262 710 288 685 288 645 c 0
 288 640 288 636 287 631 c 4
 281 586 243 552 197 552 c 7
200 577 m 7
 232 577 258 600 262 631 c 4
 262 634 262 638 262 641 c 0
 262 668 245 685 215 685 c 7
 183 685 158 663 154 631 c 4
 154 629 153 626 153 624 c 0
 153 598 173 577 200 577 c 7
EndSplineSet
EndChar

StartChar: acute
Encoding: 180 180 88
Width: 176
VWidth: 838
Flags: HMW
LayerCount: 2
Fore
SplineSet
249 664 m 0
 246 641 233 629 217 613 c 2
 119 509 l 1
 103 519 l 1
 170 661 l 2
 180 683 193 700 221 700 c 3
 239 700 250 687 250 670 c 0
 250 668 249 666 249 664 c 0
EndSplineSet
EndChar

StartChar: periodcentered
Encoding: 183 183 89
Width: 220
VWidth: 838
Flags: HMW
LayerCount: 2
Fore
SplineSet
187 550 m 7
 159 550 140 572 140 598 c 0
 140 600 140 603 140 605 c 4
 144 637 171 660 203 660 c 7
 233 660 251 643 251 615 c 0
 251 612 250 608 250 605 c 4
 246 574 219 550 187 550 c 7
EndSplineSet
EndChar

StartChar: multiply
Encoding: 215 215 90
Width: 530
VWidth: 838
Flags: HMW
LayerCount: 2
Fore
SplineSet
152 98 m 5
 127 127 l 5
 273 254 l 5
 163 381 l 5
 196 410 l 5
 305 282 l 5
 450 410 l 5
 475 381 l 5
 329 254 l 5
 439 127 l 5
 406 98 l 5
 297 226 l 5
 152 98 l 5
EndSplineSet
EndChar

StartChar: dieresis
Encoding: 168 168 91
Width: 340
VWidth: 838
Flags: HMW
LayerCount: 2
Fore
SplineSet
315 500 m 3
 287 500 268 522 268 548 c 0
 268 550 268 553 268 555 c 0
 272 587 299 610 331 610 c 3
 361 610 379 593 379 565 c 0
 379 562 378 558 378 555 c 0
 374 524 347 500 315 500 c 3
165 500 m 3
 137 500 118 522 118 548 c 0
 118 550 118 553 118 555 c 0
 122 587 149 610 181 610 c 3
 211 610 229 593 229 565 c 0
 229 562 228 558 228 555 c 0
 224 524 197 500 165 500 c 3
EndSplineSet
EndChar

StartChar: macron
Encoding: 175 175 92
Width: 260
VWidth: 838
InSpiro: 1
Flags: HMW
LayerCount: 2
Fore
SplineSet
94 599 m 1
 103 659 l 1
 343 659 l 1
 334 599 l 1
 94 599 l 1
  Spiro
    94 599 v
    103 659 v
    343 659 v
    334 599 v
    0 0 z
  EndSpiro
EndSplineSet
EndChar

StartChar: bracketleft
Encoding: 91 91 93
Width: 270
VWidth: 838
Flags: HMW
LayerCount: 2
Fore
SplineSet
66 -100 m 1
 183 735 l 1
 353 735 l 1
 350 710 l 1
 250 710 l 1
 139 -75 l 1
 239 -75 l 1
 236 -100 l 1
 66 -100 l 1
EndSplineSet
EndChar

StartChar: backslash
Encoding: 92 92 94
Width: 297
VWidth: 838
Flags: HMW
LayerCount: 2
Fore
SplineSet
186 -137 m 5
 132 691 l 5
 191 691 l 5
 243 -137 l 5
 186 -137 l 5
EndSplineSet
EndChar

StartChar: bracketright
Encoding: 93 93 95
Width: 269
VWidth: 838
Flags: HMW
LayerCount: 2
Fore
SplineSet
6 -100 m 1
 9 -75 l 1
 108 -75 l 1
 219 710 l 1
 120 710 l 1
 123 735 l 1
 292 735 l 1
 175 -100 l 1
 6 -100 l 1
EndSplineSet
EndChar

StartChar: asciicircum
Encoding: 94 94 96
Width: 410
VWidth: 838
Flags: HMW
LayerCount: 2
Fore
SplineSet
101 450 m 1
 293 701 l 1
 320 701 l 1
 438 450 l 1
 403 450 l 1
 298 649 l 1
 137 450 l 1
 101 450 l 1
EndSplineSet
EndChar

StartChar: underscore
Encoding: 95 95 97
Width: 566
VWidth: 811
Flags: HMW
LayerCount: 2
Fore
SplineSet
55 -36 m 1
 60 0 l 1
 506 0 l 1
 501 -36 l 1
 55 -36 l 1
EndSplineSet
EndChar

StartChar: grave
Encoding: 96 96 98
Width: 176
VWidth: 838
Flags: HMW
LayerCount: 2
Fore
SplineSet
123 664 m 0
 126 684 141 700 161 700 c 3
 189 700 198 683 202 661 c 2
 229 519 l 1
 211 509 l 1
 141 613 l 2
 131 627 123 637 123 655 c 0
 123 658 123 661 123 664 c 0
EndSplineSet
EndChar

StartChar: quotedblleft
Encoding: 8220 8220 99
Width: 330
VWidth: 838
Flags: HMW
LayerCount: 2
Fore
SplineSet
311 468 m 3
 275 468 263 495 263 516 c 0
 263 518 264 521 264 523 c 0
 277 612 317 667 369 700 c 1
 383 676 l 1
 365 665 351 651 340 638 c 0
 328 624 321 612 321 600 c 0
 321 584 338 577 348 570 c 0
 361 562 374 552 374 531 c 0
 374 529 374 526 374 523 c 0
 370 491 343 468 311 468 c 3
161 468 m 3
 125 468 113 495 113 516 c 0
 113 518 114 521 114 523 c 0
 127 612 167 667 219 700 c 1
 233 676 l 1
 215 665 201 651 190 638 c 0
 178 624 171 612 171 600 c 0
 171 584 188 577 198 570 c 0
 211 562 224 552 224 531 c 0
 224 529 224 526 224 523 c 0
 220 491 193 468 161 468 c 3
EndSplineSet
EndChar

StartChar: quotedblright
Encoding: 8221 8221 100
Width: 330
VWidth: 838
Flags: HMW
LayerCount: 2
Fore
SplineSet
333 700 m 3
 369 700 381 673 381 652 c 0
 381 650 381 647 381 645 c 0
 368 556 327 501 275 468 c 1
 261 492 l 1
 279 503 293 517 304 530 c 0
 316 544 324 556 324 568 c 0
 324 584 306 591 296 598 c 0
 283 606 270 616 270 637 c 0
 270 639 271 642 271 645 c 0
 275 677 301 700 333 700 c 3
183 700 m 3
 219 700 231 673 231 652 c 0
 231 650 231 647 231 645 c 0
 218 556 177 501 125 468 c 1
 111 492 l 1
 129 503 143 517 154 530 c 0
 166 544 174 556 174 568 c 0
 174 584 156 591 146 598 c 0
 133 606 120 616 120 637 c 0
 120 639 121 642 121 645 c 0
 125 677 151 700 183 700 c 3
EndSplineSet
EndChar

StartChar: quoteleft
Encoding: 8216 8216 102
Width: 180
VWidth: 838
Flags: HMW
LayerCount: 2
Fore
SplineSet
161 468 m 3
 125 468 113 495 113 516 c 0
 113 518 114 521 114 523 c 0
 127 612 167 667 219 700 c 1
 233 676 l 1
 215 665 201 651 190 638 c 0
 178 624 171 612 171 600 c 0
 171 584 188 577 198 570 c 0
 211 562 224 552 224 531 c 0
 224 529 224 526 224 523 c 0
 220 491 193 468 161 468 c 3
EndSplineSet
EndChar

StartChar: quoteright
Encoding: 8217 8217 103
Width: 180
VWidth: 838
Flags: HMW
LayerCount: 2
Fore
SplineSet
183 700 m 3
 219 700 231 673 231 652 c 0
 231 650 231 647 231 645 c 0
 218 556 177 501 125 468 c 1
 111 492 l 1
 129 503 143 517 154 530 c 0
 166 544 174 556 174 568 c 0
 174 584 156 591 146 598 c 0
 133 606 120 616 120 637 c 0
 120 639 121 642 121 645 c 0
 125 677 151 700 183 700 c 3
EndSplineSet
EndChar

StartChar: ellipsis
Encoding: 8230 8230 104
Width: 700
VWidth: 838
Flags: HMW
LayerCount: 2
Fore
SplineSet
589 -10 m 7
 561 -10 541 12 541 38 c 0
 541 40 541 43 541 45 c 4
 545 77 572 100 604 100 c 7
 634 100 652 83 652 55 c 0
 652 52 651 48 651 45 c 4
 647 14 621 -10 589 -10 c 7
349 -10 m 7
 321 -10 301 12 301 38 c 0
 301 40 301 43 301 45 c 4
 305 77 332 100 364 100 c 7
 394 100 412 83 412 55 c 0
 412 52 411 48 411 45 c 4
 407 14 381 -10 349 -10 c 7
109 -10 m 7
 81 -10 61 12 61 38 c 0
 61 40 61 43 61 45 c 4
 65 77 92 100 124 100 c 7
 154 100 172 83 172 55 c 0
 172 52 171 48 171 45 c 4
 167 14 141 -10 109 -10 c 7
EndSplineSet
LCarets2: 2 0 0
Ligature2: "'liga' standard ligatures-subtable" period period period
EndChar

StartChar: fraction
Encoding: 8260 8260 105
Width: 183
VWidth: 838
Flags: HMW
LayerCount: 2
Fore
SplineSet
-132 5 m 5
 350 650 l 5
 409 650 l 5
 -74 5 l 5
 -132 5 l 5
EndSplineSet
EndChar

StartChar: bullet
Encoding: 8226 8226 106
Width: 340
VWidth: 838
Flags: HMW
LayerCount: 2
Fore
SplineSet
197 190 m 3
 142 190 101 234 101 286 c 0
 101 291 101 295 102 300 c 0
 111 364 164 410 228 410 c 3
 287 410 324 374 324 319 c 0
 324 313 323 307 322 300 c 0
 313 238 261 190 197 190 c 3
EndSplineSet
EndChar

StartChar: dagger
Encoding: 8224 8224 107
Width: 374
VWidth: 838
Flags: HMW
LayerCount: 2
Fore
SplineSet
272 606 m 4
 286 606 297 592 297 574 c 0
 297 572 297 570 297 568 c 6
 275 410 l 29
 355 410 l 6
 378 410 383 396 383 385 c 0
 383 370 373 350 346 350 c 4
 323 350 299 364 269 370 c 5
 245 200 l 6
 226 64 196 -68 180 -136 c 4
 175 -154 174 -165 164 -165 c 4
 157 -165 156 -158 156 -150 c 0
 156 -145 156 -141 156 -136 c 4
 160 -68 166 64 185 200 c 6
 209 370 l 5
 177 364 146 350 126 350 c 4
 103 350 98 365 98 376 c 0
 98 393 111 410 135 410 c 6
 215 410 l 29
 237 568 l 6
 240 589 256 606 272 606 c 4
EndSplineSet
EndChar

StartChar: daggerdbl
Encoding: 8225 8225 108
Width: 374
VWidth: 838
Flags: HMW
LayerCount: 2
Back
SplineSet
187 606 m 4
 203 606 217 589 217 568 c 6
 217 410 l 29
 297 410 l 6
 323 410 329 391 329 380 c 4
 329 369 323 350 297 350 c 4
 274 350 248 364 217 370 c 5
 217 200 l 6
 217 64 205 -68 199 -136 c 4
 197 -154 197 -165 187 -165 c 4
 176 -165 177 -149 175 -136 c 4
 169 -68 157 64 157 200 c 6
 157 370 l 5
 126 364 97 350 77 350 c 4
 51 350 45 370 45 380 c 4
 45 394 54 410 77 410 c 6
 157 410 l 29
 157 568 l 6
 157 589 171 606 187 606 c 4
EndSplineSet
Fore
SplineSet
272 606 m 0
 286 606 297 592 297 574 c 0
 297 572 297 570 297 568 c 2
 275 410 l 1
 355 410 l 2
 378 410 383 396 383 385 c 0
 383 370 373 350 346 350 c 0
 323 350 299 364 269 370 c 1
 256 280 l 1
 336 280 l 2
 359 280 364 266 364 255 c 0
 364 240 355 220 328 220 c 0
 305 220 281 234 251 240 c 1
 245 200 l 2
 226 64 196 -68 180 -136 c 0
 175 -154 174 -165 164 -165 c 0
 157 -165 156 -158 156 -150 c 0
 156 -145 156 -141 156 -136 c 0
 160 -68 166 64 185 200 c 2
 191 240 l 1
 159 234 128 220 108 220 c 0
 85 220 80 235 80 246 c 0
 80 263 92 280 116 280 c 2
 196 280 l 1
 209 370 l 1
 177 364 146 350 126 350 c 0
 103 350 98 365 98 376 c 0
 98 393 111 410 135 410 c 2
 215 410 l 1
 237 568 l 2
 240 589 256 606 272 606 c 0
EndSplineSet
EndChar

StartChar: endash
Encoding: 8211 8211 109
Width: 630
VWidth: 838
Flags: HMW
LayerCount: 2
Back
SplineSet
65.3896484375 341.170898438 m 1
 65.3896484375 378.056640625 l 1
 409.104492188 378.056640625 l 1
 409.104492188 341.170898438 l 1
 65.3896484375 341.170898438 l 1
65.3896484375 206.19921875 m 1
 65.3896484375 243.0859375 l 1
 409.104492188 243.0859375 l 1
 409.104492188 206.19921875 l 1
 65.3896484375 206.19921875 l 1
633.778320312 102.24609375 m 0
 633.778320312 132.426757812 648.868164062 150.870117188 678.208984375 150.870117188 c 0
 727.670898438 150.870117188 728.508789062 94.7021484375 748.62890625 64.521484375 c 0
 760.366210938 46.916015625 777.971679688 34.341796875 808.150390625 34.341796875 c 0
 850.06640625 34.341796875 880.247070312 56.1376953125 901.206054688 80.4501953125 c 0
 923.83984375 107.276367188 939.768554688 147.516601562 939.768554688 194.462890625 c 0
 939.768554688 269.913085938 902.8828125 320.211914062 849.228515625 342.84765625 c 0
 830.786132812 350.391601562 810.666015625 354.583007812 788.030273438 354.583007812 c 0
 753.659179688 354.583007812 723.478515625 343.685546875 697.491210938 321.888671875 c 1
 684.916015625 323.565429688 l 1
 728.508789062 639.616210938 l 1
 995.098632812 639.616210938 l 1
 972.462890625 564.166015625 l 1
 757.012695312 564.166015625 l 1
 736.053710938 419.134765625 l 1
 760.366210938 427.518554688 778.809570312 432.548828125 808.989257812 432.548828125 c 0
 907.913085938 432.548828125 974.139648438 382.249023438 1003.48144531 311.829101562 c 0
 1013.54199219 286.6796875 1018.57226562 259.014648438 1018.57226562 228.833984375 c 0
 1018.57226562 156.73828125 989.23046875 101.407226562 951.505859375 63.6826171875 c 0
 913.780273438 26.796875 857.612304688 -3.3837890625 786.353515625 -3.3837890625 c 0
 720.96484375 -3.3837890625 669.826171875 20.08984375 645.514648438 60.330078125 c 0
 637.969726562 72.9052734375 633.778320312 87.15625 633.778320312 102.24609375 c 0
-162.635742188 183.564453125 m 1
 -430.901367188 183.564453125 l 1
 -437.608398438 197.81640625 l 1
 -99.7607421875 658.8984375 l 1
 -77.96484375 650.514648438 l 1
 -77.96484375 247.27734375 l 1
 0 247.27734375 l 1
 0 183.564453125 l 1
 -77.96484375 183.564453125 l 1
 -77.96484375 40.208984375 l 1
 -3.353515625 24.2822265625 l 1
 -3.353515625 5 l 1
 -263.236328125 5 l 1
 -263.236328125 24.2822265625 l 1
 -162.635742188 40.208984375 l 1
 -162.635742188 183.564453125 l 1
-166.827148438 492.0703125 m 1
 -170.180664062 492.0703125 l 1
 -343.715820312 250.630859375 l 1
 -342.877929688 247.27734375 l 1
 -166.827148438 247.27734375 l 1
 -166.827148438 492.0703125 l 1
EndSplineSet
Fore
SplineSet
97 230 m 5
 104 280 l 5
 604 280 l 5
 597 230 l 5
 97 230 l 5
EndSplineSet
EndChar

StartChar: emdash
Encoding: 8212 8212 110
Width: 930
VWidth: 838
Flags: HMW
LayerCount: 2
Fore
SplineSet
97 230 m 5
 104 280 l 5
 904 280 l 5
 897 230 l 5
 97 230 l 5
EndSplineSet
EndChar

StartChar: asterisk
Encoding: 42 42 111
Width: 437
VWidth: 838
Flags: HMW
LayerCount: 2
Back
SplineSet
352.098632812 395.4296875 m 0
 352.098632812 375.374023438 337.737304688 362.733398438 317.727539062 362.733398438 c 0
 298.569335938 362.733398438 286.997070312 374.129882812 276.649414062 384.950195312 c 0
 263.416015625 398.786132812 250.374023438 414.771484375 234.732421875 427.28515625 c 2
 212.936523438 444.051757812 l 1
 217.130859375 415.548828125 l 2
 219.924804688 396.546875 223.697265625 379.779296875 228.447265625 365.249023438 c 0
 233.198242188 350.717773438 235.573242188 337.864257812 235.573242188 326.686523438 c 0
 235.573242188 307.353515625 224.23828125 293.153320312 204.555664062 293.153320312 c 0
 183.672851562 293.153320312 172.698242188 308.713867188 172.698242188 330.040039062 c 0
 172.698242188 342.3359375 175.353515625 355.749023438 180.662109375 370.279296875 c 0
 185.971679688 384.810546875 189.744140625 400.1796875 191.98046875 416.38671875 c 2
 195.333984375 444.051757812 l 1
 171.860351562 426.447265625 l 1
 149.744140625 408.75390625 134.342773438 383.3515625 111.081054688 368.182617188 c 0
 104.654296875 363.991210938 97.2490234375 361.895507812 88.8662109375 361.895507812 c 0
 68.5849609375 361.895507812 54.494140625 374.831054688 54.494140625 394.588867188 c 0
 54.494140625 415.692382812 71.7041015625 422.4765625 89.28515625 427.704101562 c 0
 112.774414062 434.688476562 138.87890625 439.044921875 160.962890625 449.08203125 c 2
 185.2734375 459.979492188 l 1
 159.286132812 470.877929688 l 2
 129.720703125 482.97265625 87.666015625 484.084960938 64.1337890625 501.477539062 c 0
 57.7060546875 506.227539062 54.4931640625 513.633789062 54.4931640625 523.692382812 c 0
 54.4931640625 543.8828125 67.8408203125 557.2265625 88.865234375 557.2265625 c 0
 107.994140625 557.2265625 118.741210938 545.845703125 129.103515625 535.010742188 c 0
 142.912109375 520.57421875 155.192382812 504.192382812 172.696289062 491.836914062 c 2
 194.493164062 475.908203125 l 1
 191.140625 504.412109375 l 2
 188.904296875 522.854492188 185.131835938 538.084960938 179.822265625 550.100585938 c 0
 174.513671875 562.116210938 171.858398438 574.83203125 171.858398438 588.244140625 c 0
 171.858398438 611.474609375 182.643554688 626.80859375 203.715820312 626.80859375 c 0
 224.025390625 626.80859375 234.733398438 610.962890625 234.733398438 588.244140625 c 0
 234.733398438 573.676757812 229.541015625 561.959960938 225.931640625 550.100585938 c 0
 221.55078125 535.704101562 216.499023438 521.5625 215.452148438 502.735351562 c 2
 212.9375 475.908203125 l 1
 233.89453125 492.674804688 l 2
 252.451171875 507.32421875 264.919921875 522.58203125 279.584960938 537.944335938 c 0
 289.475585938 548.305664062 299.583984375 558.063476562 317.728515625 558.063476562 c 0
 339.099609375 558.063476562 352.099609375 544.541992188 352.099609375 524.529296875 c 0
 352.099609375 502.827148438 335.615234375 495.965820312 317.728515625 490.997070312 c 0
 294.76953125 484.620117188 269.296875 480.7109375 247.307617188 471.71484375 c 2
 221.318359375 460.81640625 l 1
 245.630859375 449.918945312 l 2
 269.015625 439.201171875 293.931640625 434.965820312 318.565429688 428.124023438 c 0
 336.061523438 423.264648438 352.098632812 416.325195312 352.098632812 395.4296875 c 0
EndSplineSet
Fore
SplineSet
237 276 m 5
 136 309 l 6
 118 314 103 320 103 339 c 0
 103 341 103 343 103 345 c 4
 106 367 124 384 147 384 c 4
 168 384 176 372 185 361 c 6
 249 294 l 5
 243 418 l 4
 247 444 261 460 284 460 c 7
 303 460 312 448 312 428 c 0
 312 425 312 421 312 418 c 4
 270 294 l 5
 354 362 l 6
 367 373 376 384 397 384 c 4
 418 384 431 371 431 352 c 0
 431 350 431 348 431 346 c 4
 428 322 408 316 387 310 c 6
 277 276 l 5
 378 241 l 6
 395 235 411 229 411 210 c 0
 411 208 411 207 411 205 c 4
 408 183 389 169 367 169 c 4
 345 169 338 180 326 193 c 6
 265 258 l 5
 272 130 l 4
 269 108 255 92 233 92 c 7
 213 92 203 106 203 125 c 0
 203 128 204 130 204 133 c 4
 245 258 l 5
 165 192 l 6
 149 179 139 168 117 168 c 4
 97 168 83 179 83 197 c 0
 83 199 84 201 84 203 c 4
 87 226 105 233 125 240 c 6
 237 276 l 5
EndSplineSet
EndChar

StartChar: hyphen
Encoding: 45 45 112
Width: 390
VWidth: 838
Flags: HMW
LayerCount: 2
Fore
SplineSet
88 200 m 1
 97 260 l 5
 367 260 l 5
 358 200 l 1
 88 200 l 1
EndSplineSet
EndChar

StartChar: slash
Encoding: 47 47 113
Width: 297
VWidth: 838
Flags: HMW
LayerCount: 2
Fore
SplineSet
16 -137 m 1
 301 690 l 1
 359 690 l 1
 74 -137 l 1
 16 -137 l 1
EndSplineSet
EndChar

StartChar: parenright
Encoding: 41 41 114
Width: 270
VWidth: 838
Flags: HMW
LayerCount: 2
Fore
SplineSet
191 290 m 4
 197 330 199 371 199 410 c 0
 199 534 173 648 132 725 c 1
 143 735 l 1
 219 664 277 526 277 374 c 0
 277 346 275 318 271 290 c 4
 244 96 125 -73 16 -170 c 5
 8 -160 l 5
 86 -57 167 118 191 290 c 4
EndSplineSet
EndChar

StartChar: parenleft
Encoding: 40 40 115
Width: 270
VWidth: 838
Flags: HMW
LayerCount: 2
Fore
SplineSet
161 290 m 4
 155 249 152 209 152 169 c 0
 152 40 180 -81 218 -160 c 5
 206 -170 l 5
 137 -87 75 48 75 206 c 0
 75 234 77 261 81 290 c 4
 107 474 219 651 333 735 c 1
 342 725 l 1
 260 624 185 458 161 290 c 4
EndSplineSet
EndChar

StartChar: cent
Encoding: 162 162 116
Width: 458
VWidth: 838
Flags: HMW
LayerCount: 2
Back
SplineSet
269.619140625 457.69921875 m 5
 291.415039062 457.139648438 311.815429688 454.20703125 330.818359375 448.897460938 c 4
 349.8203125 443.588867188 366.16796875 436.462890625 379.860351562 427.51953125 c 4
 393.552734375 418.578125 404.310546875 408.239257812 412.134765625 396.501953125 c 4
 419.959960938 384.765625 423.872070312 372.190429688 423.872070312 358.776367188 c 4
 423.872070312 344.24609375 420.518554688 332.649414062 413.811523438 323.987304688 c 4
 407.104492188 315.325195312 397.604492188 310.993164062 385.30859375 310.993164062 c 4
 370.778320312 310.993164062 359.600585938 315.325195312 351.776367188 323.987304688 c 4
 343.952148438 332.649414062 338.643554688 345.922851562 335.849609375 363.806640625 c 4
 332.49609375 385.043945312 325.370117188 400.83203125 314.471679688 411.172851562 c 4
 303.573242188 421.51171875 288.623046875 427.798828125 269.62109375 430.034179688 c 5
 269.62109375 57.8154296875 l 5
 295.888671875 57.8154296875 320.060546875 62.845703125 342.135742188 72.9052734375 c 4
 364.211914062 82.9658203125 382.794921875 98.3349609375 397.884765625 119.013671875 c 6
 407.10546875 131.588867188 l 5
 423.034179688 123.205078125 l 5
 418.842773438 112.306640625 l 6
 405.98828125 78.7744140625 386.708007812 52.2265625 360.998046875 32.666015625 c 4
 335.2890625 13.10546875 304.830078125 1.6474609375 269.620117188 -1.7060546875 c 5
 269.620117188 -103.982421875 l 5
 234.41015625 -103.982421875 l 5
 234.41015625 -2.5439453125 l 5
 205.907226562 -0.8671875 179.778320312 5.69921875 156.025390625 17.1572265625 c 4
 132.274414062 28.61328125 112.013671875 44.123046875 95.2470703125 63.68359375 c 4
 78.48046875 83.2451171875 65.345703125 106.438476562 55.845703125 133.265625 c 4
 46.3447265625 160.092773438 41.59375 189.43359375 41.59375 221.291015625 c 4
 41.59375 253.146484375 46.2041015625 282.627929688 55.4267578125 309.733398438 c 4
 64.6484375 336.83984375 77.7822265625 360.591796875 94.8271484375 380.991210938 c 4
 111.874023438 401.390625 132.2734375 418.157226562 156.024414062 431.291015625 c 4
 179.77734375 444.42578125 205.90625 452.668945312 234.409179688 456.022460938 c 5
 234.409179688 566.681640625 l 5
 269.619140625 566.681640625 l 5
 269.619140625 457.69921875 l 5
127.103515625 238.057617188 m 4
 127.103515625 188.875 136.325195312 149.194335938 154.768554688 119.013671875 c 4
 173.2109375 88.833984375 199.7578125 69.8310546875 234.409179688 62.0068359375 c 5
 234.409179688 429.196289062 l 5
 219.877929688 426.40234375 206.185546875 419.8359375 193.33203125 409.497070312 c 4
 180.477539062 399.15625 169.16015625 385.744140625 159.37890625 369.255859375 c 4
 149.598632812 352.76953125 141.774414062 333.487304688 135.90625 311.411132812 c 4
 130.038085938 289.3359375 127.103515625 264.883789062 127.103515625 238.057617188 c 4
EndSplineSet
Fore
SplineSet
459 359 m 0
 455 332 441 311 415 311 c 0
 387 311 373 328 373 361 c 0
 373 363 373 366 373 368 c 0
 373 398 354 400 326 401 c 1
 277 50 l 1
 333 51 378 77 408 112 c 2
 418 124 l 1
 434 116 l 1
 428 106 l 2
 397 46 342 0 269 -10 c 5
 254 -111 l 1
 219 -111 l 1
 234 -10 l 1
 127 -7 63 74 63 181 c 0
 63 194 64 207 66 221 c 0
 84 351 178 446 299 457 c 1
 315 567 l 1
 350 567 l 1
 334 458 l 1
 397 454 460 422 460 369 c 0
 460 366 459 362 459 359 c 0
291 400 m 1
 203 392 168 335 154 238 c 0
 152 222 151 207 151 192 c 0
 151 119 179 62 242 50 c 1
 291 400 l 1
EndSplineSet
EndChar

StartChar: sterling
Encoding: 163 163 117
Width: 563
VWidth: 838
Flags: HMW
LayerCount: 2
Fore
SplineSet
32 49 m 0
 39 96 84 122 133 122 c 0
 149 122 166 120 185 115 c 1
 204 165 222 217 239 275 c 1
 146 275 l 1
 151 312 l 1
 251 312 l 1
 284 410 l 2
 313 494 346 556 382 595 c 0
 418 634 460 655 508 655 c 0
 554 655 602 636 602 598 c 0
 602 596 601 593 601 591 c 0
 597 563 572 543 545 543 c 0
 519 543 510 561 504 579 c 0
 500 593 494 594 477 594 c 0
 457 594 445 589 435 567 c 0
 410 507 390 447 366 366 c 2
 350 312 l 1
 501 312 l 1
 496 275 l 1
 338 275 l 1
 313 209 288 148 256 95 c 1
 289 79 327 71 369 71 c 0
 435 71 478 92 496 134 c 1
 525 134 l 1
 512 43 460 -10 370 -10 c 0
 323 -10 294 4 265 24 c 0
 254 31 240 42 226 54 c 1
 192 21 150 -10 97 -10 c 4
 59 -10 31 7 31 40 c 0
 31 43 32 46 32 49 c 0
76 49 m 0
 76 36 86 27 101 27 c 0
 130 27 153 51 166 76 c 1
 155 82 145 85 128 85 c 0
 101 85 76 78 76 49 c 0
EndSplineSet
EndChar

StartChar: currency
Encoding: 164 164 118
Width: 533
VWidth: 838
Flags: HMW
LayerCount: 2
Back
SplineSet
105.791015625 111.467773438 m 5
 65.5517578125 151.70703125 l 5
 121.719726562 207.037109375 l 5
 98.24609375 235.540039062 86.509765625 271.029296875 86.509765625 313.504882812 c 4
 86.509765625 353.744140625 98.24609375 388.955078125 121.719726562 419.133789062 c 5
 65.5517578125 473.626953125 l 5
 105.791015625 513.866210938 l 5
 161.12109375 457.698242188 l 5
 190.741210938 481.170898438 225.952148438 492.907226562 266.750976562 492.907226562 c 4
 305.313476562 492.907226562 340.802734375 481.450195312 373.21875 458.536132812 c 5
 427.709960938 513.866210938 l 5
 467.950195312 473.626953125 l 5
 411.78125 418.295898438 l 5
 435.254882812 388.67578125 446.9921875 353.744140625 446.9921875 313.504882812 c 4
 446.9921875 273.82421875 435.534179688 238.3359375 412.620117188 207.038085938 c 5
 467.950195312 151.708007812 l 5
 427.709960938 111.467773438 l 5
 372.380859375 167.635742188 l 5
 342.759765625 144.163085938 307.549804688 132.426757812 266.750976562 132.426757812 c 4
 226.510742188 132.426757812 191.30078125 144.163085938 161.12109375 167.635742188 c 5
 105.791015625 111.467773438 l 5
266.750976562 186.078125 m 4
 283.516601562 186.078125 299.166992188 189.431640625 313.697265625 196.138671875 c 4
 328.228515625 202.845703125 341.08203125 211.926757812 352.259765625 223.383789062 c 4
 363.4375 234.841796875 372.239257812 248.254882812 378.666992188 263.624023438 c 4
 385.094726562 278.993164062 388.30859375 295.340820312 388.30859375 312.666015625 c 4
 388.30859375 329.9921875 385.094726562 346.33984375 378.666992188 361.708984375 c 4
 372.239257812 377.078125 363.4375 390.491210938 352.259765625 401.94921875 c 4
 341.08203125 413.40625 328.228515625 422.487304688 313.697265625 429.194335938 c 4
 299.166992188 435.901367188 283.516601562 439.254882812 266.750976562 439.254882812 c 4
 249.984375 439.254882812 234.3359375 435.901367188 219.8046875 429.194335938 c 4
 205.2734375 422.487304688 192.418945312 413.40625 181.2421875 401.94921875 c 4
 170.064453125 390.491210938 161.26171875 377.217773438 154.834960938 362.127929688 c 4
 148.407226562 347.0390625 145.194335938 330.830078125 145.194335938 313.504882812 c 4
 145.194335938 296.1796875 148.407226562 279.83203125 154.834960938 264.462890625 c 4
 161.26171875 249.09375 170.064453125 235.540039062 181.2421875 223.802734375 c 4
 192.418945312 212.067382812 205.2734375 202.845703125 219.8046875 196.138671875 c 4
 234.3359375 189.431640625 249.984375 186.078125 266.750976562 186.078125 c 4
EndSplineSet
Fore
SplineSet
121 111 m 1
 86 152 l 1
 151 207 l 1
 136 229 129 255 129 284 c 0
 129 293 130 303 131 313 c 0
 137 353 153 390 181 420 c 1
 131 473 l 1
 177 514 l 1
 225 458 l 1
 257 482 295 493 336 493 c 3
 374 493 408 482 438 459 c 1
 500 514 l 1
 534 473 l 1
 470 418 l 1
 485 395 493 369 493 339 c 0
 493 331 492 322 491 313 c 0
 486 274 468 238 441 207 c 1
 489 152 l 1
 444 111 l 1
 395 167 l 1
 363 143 327 132 286 132 c 3
 246 132 211 143 184 167 c 1
 121 111 l 1
293 186 m 3
 363 186 423 243 433 313 c 0
 434 320 434 326 434 332 c 0
 434 393 392 439 329 439 c 3
 259 439 199 382 189 313 c 0
 188 306 188 300 188 294 c 0
 188 233 230 186 293 186 c 3
EndSplineSet
EndChar

StartChar: yen
Encoding: 165 165 119
Width: 549
VWidth: 838
Flags: HMW
LayerCount: 2
Back
SplineSet
89.025390625 318.536132812 m 5
 213.09765625 318.537109375 l 5
 100.759765625 580.096679688 l 6
 96.2900390625 590.15625 92.09765625 598.260742188 88.185546875 604.407226562 c 4
 84.2734375 610.555664062 79.662109375 615.4453125 74.353515625 619.078125 c 4
 69.0439453125 622.7109375 62.896484375 625.365234375 55.91015625 627.041992188 c 4
 48.9248046875 628.71875 40.1220703125 630.116210938 29.50390625 631.233398438 c 5
 29.50390625 650.515625 l 5
 262.559570312 650.515625 l 5
 262.559570312 631.233398438 l 5
 241.322265625 627.321289062 226.091796875 622.850585938 216.870117188 617.8203125 c 4
 207.6484375 612.790039062 203.038085938 605.525390625 203.038085938 596.024414062 c 4
 203.038085938 588.19921875 205.552734375 578.418945312 210.583007812 566.682617188 c 6
 301.9609375 344.525390625 l 5
 305.313476562 344.525390625 l 5
 396.692382812 567.520507812 l 6
 400.045898438 576.463867188 401.72265625 584.567382812 401.72265625 591.833007812 c 4
 401.72265625 603.010742188 396.551757812 611.672851562 386.212890625 617.8203125 c 4
 375.874023438 623.967773438 358.12890625 628.439453125 332.979492188 631.233398438 c 5
 332.979492188 650.514648438 l 5
 519.088867188 650.514648438 l 5
 519.088867188 631.233398438 l 5
 505.674804688 628.439453125 494.498046875 625.504882812 485.5546875 622.430664062 c 4
 476.61328125 619.356445312 468.7890625 614.60546875 462.08203125 608.177734375 c 4
 455.375 601.750976562 448.947265625 592.948242188 442.80078125 581.770507812 c 4
 436.653320312 570.59375 429.946289062 556.0625 422.6796875 538.177734375 c 6
 332.140625 318.536132812 l 5
 450.345703125 318.536132812 l 5
 450.345703125 281.649414062 l 5
 317.05078125 281.649414062 l 5
 317.05078125 217.09765625 l 5
 450.345703125 217.09765625 l 5
 450.345703125 180.2109375 l 5
 317.05078125 180.2109375 l 5
 317.05078125 40.208984375 l 5
 391.662109375 24.2822265625 l 5
 391.662109375 5 l 5
 153.576171875 5 l 5
 153.576171875 24.2822265625 l 5
 229.025390625 40.208984375 l 5
 229.025390625 180.2109375 l 5
 89.025390625 180.2109375 l 5
 89.025390625 217.09765625 l 5
 229.025390625 217.09765625 l 5
 229.025390625 281.649414062 l 5
 89.025390625 281.649414062 l 5
 89.025390625 318.536132812 l 5
EndSplineSet
Fore
SplineSet
476 612 m 0
 476 622 455 627 422 631 c 1
 424 650 l 1
 610 650 l 1
 608 631 l 1
 582 626 565 622 547 608 c 0
 526 591 514 567 499 538 c 2
 377 318 l 1
 496 318 l 1
 491 282 l 1
 357 282 l 1
 347 217 l 1
 481 217 l 1
 476 180 l 1
 342 180 l 1
 322 35 l 1
 395 20 l 1
 392 0 l 1
 154 0 l 1
 157 20 l 1
 234 35 l 1
 254 180 l 1
 114 180 l 1
 119 217 l 1
 259 217 l 1
 269 282 l 1
 129 282 l 1
 134 318 l 1
 258 318 l 1
 183 580 l 2
 176 604 169 621 145 627 c 0
 138 629 130 630 119 631 c 1
 121 650 l 1
 354 650 l 1
 352 631 l 1
 330 627 313 623 304 618 c 0
 293 613 288 605 287 596 c 0
 286 589 288 577 291 566 c 2
 343 371 l 1
 347 371 l 1
 469 593 l 2
 473 602 476 604 476 612 c 0
EndSplineSet
EndChar

StartChar: section
Encoding: 167 167 120
Width: 456
VWidth: 0
Flags: HMW
LayerCount: 2
Back
SplineSet
240.762695312 700.814453125 m 4
 263.119140625 700.814453125 283.798828125 698.71875 302.80078125 694.52734375 c 4
 321.8046875 690.334960938 338.291015625 684.466796875 352.264648438 676.921875 c 4
 366.236328125 669.376953125 376.994140625 660.294921875 384.540039062 649.676757812 c 4
 392.084960938 639.056640625 395.857421875 627.599609375 395.857421875 615.303710938 c 4
 395.857421875 602.44921875 392.084960938 591.831054688 384.540039062 583.447265625 c 4
 376.994140625 575.064453125 366.794921875 570.872070312 353.940429688 570.872070312 c 4
 341.0859375 570.872070312 331.724609375 575.483398438 325.856445312 584.705078125 c 4
 319.98828125 593.926757812 313.700195312 606.919921875 306.994140625 623.6875 c 4
 303.08203125 633.1875 299.029296875 641.15234375 294.837890625 647.580078125 c 4
 290.647460938 654.006835938 285.755859375 659.176757812 280.16796875 663.08984375 c 4
 274.578125 667.001953125 267.87109375 669.795898438 260.047851562 671.47265625 c 4
 252.223632812 673.149414062 243.001953125 673.987304688 232.381835938 673.987304688 c 4
 198.290039062 673.987304688 171.8828125 666.442382812 153.16015625 651.353515625 c 4
 134.438476562 636.262695312 125.076171875 614.74609375 125.076171875 586.801757812 c 4
 125.076171875 562.768554688 131.922851562 543.208007812 145.615234375 528.119140625 c 4
 159.307617188 513.028320312 176.353515625 500.034179688 196.752929688 489.135742188 c 4
 217.151367188 478.237304688 239.227539062 468.038085938 262.98046875 458.537109375 c 4
 286.732421875 449.036132812 308.80859375 437.71875 329.20703125 424.583984375 c 4
 349.606445312 411.450195312 366.65234375 395.243164062 380.344726562 375.9609375 c 4
 394.037109375 356.6796875 400.883789062 331.94921875 400.883789062 301.768554688 c 4
 400.883789062 270.471679688 393.478515625 242.806640625 378.66796875 218.774414062 c 4
 363.857421875 194.741210938 343.318359375 176.01953125 317.05078125 162.60546875 c 5
 339.40625 148.633789062 358.268554688 131.30859375 373.637695312 110.62890625 c 4
 389.006835938 89.9501953125 396.692382812 62.564453125 396.692382812 28.4716796875 c 4
 396.692382812 -20.15234375 380.344726562 -58.2958984375 347.649414062 -85.9609375 c 4
 314.955078125 -113.625 269.82421875 -127.458007812 212.259765625 -127.458007812 c 4
 189.345703125 -127.458007812 168.247070312 -125.221679688 148.965820312 -120.750976562 c 4
 129.68359375 -116.280273438 113.057617188 -109.852539062 99.083984375 -101.469726562 c 4
 85.1123046875 -93.0859375 74.2138671875 -83.166015625 66.3896484375 -71.708984375 c 4
 58.5654296875 -60.2509765625 54.6533203125 -47.81640625 54.6533203125 -34.40234375 c 4
 54.6533203125 -20.990234375 58.42578125 -10.091796875 65.970703125 -1.7080078125 c 4
 73.515625 6.6748046875 83.71484375 10.8671875 96.5693359375 10.8671875 c 4
 108.865234375 10.8671875 117.947265625 6.53515625 123.815429688 -2.1279296875 c 4
 129.68359375 -10.7900390625 135.971679688 -24.0625 142.677734375 -41.947265625 c 4
 146.03125 -50.330078125 149.6640625 -58.154296875 153.576171875 -65.4208984375 c 4
 157.48828125 -72.685546875 162.377929688 -78.9736328125 168.247070312 -84.283203125 c 4
 174.115234375 -89.5927734375 181.66015625 -93.6435546875 190.881835938 -96.4375 c 4
 200.103515625 -99.232421875 211.700195312 -100.62890625 225.671875 -100.62890625 c 4
 259.206054688 -100.62890625 285.333984375 -92.38671875 304.056640625 -75.8994140625 c 4
 322.778320312 -59.4111328125 332.140625 -36.63671875 332.140625 -7.57421875 c 4
 332.140625 18.1357421875 325.293945312 38.953125 311.6015625 54.880859375 c 4
 297.909179688 70.8095703125 280.72265625 84.501953125 260.043945312 95.9599609375 c 4
 239.365234375 107.416992188 217.149414062 117.896484375 193.396484375 127.397460938 c 4
 169.64453125 136.897460938 147.428710938 147.936523438 126.75 160.51171875 c 4
 106.071289062 173.0859375 88.884765625 188.455078125 75.1923828125 206.619140625 c 4
 61.5 224.783203125 54.6533203125 248.397460938 54.6533203125 277.458984375 c 4
 54.6533203125 309.875 63.875 337.819335938 82.318359375 361.291992188 c 4
 100.760742188 384.765625 126.470703125 402.090820312 159.444335938 413.26953125 c 5
 146.03125 420.534179688 133.177734375 428.499023438 120.880859375 437.161132812 c 4
 108.5859375 445.823242188 97.8271484375 455.744140625 88.60546875 466.920898438 c 4
 79.3837890625 478.098632812 72.1181640625 490.953125 66.80859375 505.483398438 c 4
 61.5 520.013671875 58.8447265625 536.501953125 58.8447265625 554.944335938 c 4
 58.8447265625 600.213867188 74.9140625 635.84375 107.048828125 661.833007812 c 4
 139.184570312 687.8203125 183.755859375 700.814453125 240.762695312 700.814453125 c 4
336.333984375 267.397460938 m 4
 336.333984375 284.165039062 332.420898438 298.696289062 324.59765625 310.991210938 c 4
 316.7734375 323.288085938 306.154296875 334.46484375 292.740234375 344.525390625 c 4
 279.328125 354.583984375 264.09765625 363.666992188 247.051757812 371.770507812 c 4
 230.005859375 379.875 212.26171875 388.118164062 193.817382812 396.500976562 c 5
 172.020507812 390.354492188 154.416992188 379.315429688 141.002929688 363.38671875 c 4
 127.58984375 347.458984375 120.8828125 328.875 120.8828125 307.637695312 c 4
 120.8828125 289.194335938 125.772460938 273.825195312 135.553710938 261.530273438 c 4
 145.333984375 249.233398438 158.049804688 238.475585938 173.698242188 229.25390625 c 4
 189.34765625 220.033203125 206.8125 211.7890625 226.09375 204.5234375 c 4
 245.375976562 197.2578125 264.517578125 189.154296875 283.520507812 180.2109375 c 5
 299.727539062 189.154296875 312.58203125 201.169921875 322.08203125 216.259765625 c 4
 331.583007812 231.348632812 336.333984375 248.39453125 336.333984375 267.397460938 c 4
EndSplineSet
Fore
SplineSet
137 555 m 4
 151 654 236 701 340 701 c 7
 401 701 456 685 476 650 c 4
 480 641 483 632 483 623 c 0
 483 620 482 618 482 615 c 4
 478 590 459 570 433 570 c 7
 376 570 438 648 324 648 c 7
 261 648 212 624 207 587 c 4
 206 582 206 578 206 573 c 0
 206 555 211 541 220 528 c 4
 257 478 337 462 390 425 c 4
 420 403 445 374 445 325 c 0
 445 318 444 310 443 302 c 4
 433 234 392 187 340 162 c 5
 361 148 375 131 388 110 c 4
 398 95 403 76 403 54 c 0
 403 46 402 38 401 29 c 4
 387 -74 302 -127 194 -127 c 7
 130 -127 77 -110 56 -73 c 4
 52 -65 50 -54 50 -44 c 0
 50 -41 50 -37 50 -34 c 4
 54 -8 72 11 98 11 c 4
 110 11 118 6 123 -2 c 4
 146 -44 117 -75 214 -75 c 7
 277 -75 325 -47 331 -7 c 4
 332 -1 332 4 332 9 c 0
 332 28 327 43 319 56 c 4
 282 107 205 125 150 161 c 4
 119 182 93 209 93 257 c 0
 93 263 93 271 94 278 c 4
 104 351 156 393 217 413 c 5
 175 438 135 468 135 531 c 0
 135 538 136 547 137 555 c 4
305 191 m 5
 333 205 359 233 364 270 c 4
 365 274 365 277 365 281 c 0
 365 308 351 325 334 339 c 4
 312 359 280 371 251 385 c 5
 216 375 181 348 175 306 c 4
 174 302 174 299 174 295 c 0
 174 265 192 249 213 236 c 4
 239 218 274 207 305 191 c 5
EndSplineSet
EndChar

StartChar: brokenbar
Encoding: 166 166 121
Width: 220
VWidth: 838
Flags: HMW
LayerCount: 2
Fore
SplineSet
132 373 m 5
 178 700 l 1
 238 700 l 1
 192 373 l 5
 132 373 l 5
69 -75 m 1
 115 250 l 1
 175 250 l 1
 129 -75 l 1
 69 -75 l 1
EndSplineSet
EndChar

StartChar: uni00AD
Encoding: 173 173 122
Width: 390
VWidth: 838
Flags: HMW
LayerCount: 2
Fore
SplineSet
85 181 m 1
 95 251 l 1
 365 251 l 1
 355 181 l 1
 85 181 l 1
EndSplineSet
EndChar

StartChar: logicalnot
Encoding: 172 172 123
Width: 475
VWidth: 838
Flags: HMW
LayerCount: 2
Fore
SplineSet
403 226 m 5
 102 226 l 5
 107 263 l 5
 452 263 l 5
 433 128 l 5
 389 128 l 5
 403 226 l 5
EndSplineSet
EndChar

StartChar: paragraph
Encoding: 182 182 124
Width: 458
VWidth: 838
Flags: HMW
LayerCount: 2
Back
SplineSet
245.46875 -85.5400390625 m 5
 245.46875 290.029296875 l 5
 198.522460938 290.029296875 l 6
 171.696289062 290.029296875 147.6640625 294.78125 126.426757812 304.28125 c 4
 105.188476562 313.782226562 87.025390625 326.776367188 71.9345703125 343.264648438 c 4
 56.8447265625 359.751953125 45.248046875 378.75390625 37.1435546875 400.271484375 c 4
 29.0400390625 421.7890625 24.98828125 444.842773438 24.98828125 469.43359375 c 4
 24.98828125 496.819335938 29.458984375 521.690429688 38.4013671875 544.045898438 c 4
 47.34375 566.40234375 60.1982421875 585.404296875 76.96484375 601.053710938 c 4
 93.73046875 616.702148438 114.129882812 628.858398438 138.163085938 637.520507812 c 4
 162.1953125 646.182617188 189.30078125 650.514648438 219.48046875 650.514648438 c 6
 438.28515625 650.514648438 l 5
 438.28515625 629.556640625 l 5
 372.895507812 615.3046875 l 5
 372.895507812 -85.5400390625 l 5
 334.333007812 -85.5400390625 l 5
 334.333007812 616.981445312 l 5
 284.032226562 616.981445312 l 5
 284.032226562 -85.5400390625 l 5
 245.46875 -85.5400390625 l 5
EndSplineSet
Fore
SplineSet
221 -86 m 1
 274 290 l 1
 240 290 l 2
 145 290 89 351 89 438 c 0
 89 448 89 458 91 469 c 0
 107 585 194 650 310 650 c 2
 529 650 l 1
 525 620 l 1
 471 605 l 1
 374 -86 l 1
 322 -86 l 1
 419 605 l 1
 369 605 l 1
 272 -86 l 1
 221 -86 l 1
EndSplineSet
EndChar

StartChar: cedilla
Encoding: 184 184 125
Width: 192
VWidth: 838
Flags: HMW
LayerCount: 2
Fore
SplineSet
166 -126 m 0
 158 -182 103 -210 43 -210 c 0
 17 -210 -7 -201 -19 -190 c 1
 -3 -166 l 1
 12 -175 20 -179 42 -179 c 0
 72 -179 99 -165 103 -136 c 0
 103 -133 104 -131 104 -128 c 0
 104 -109 92 -99 68 -99 c 0
 54 -99 38 -103 23 -107 c 1
 17 -99 l 1
 85 19 l 1
 116 19 l 1
 82 -44 l 1
 132 -44 167 -69 167 -113 c 0
 167 -117 167 -122 166 -126 c 0
EndSplineSet
EndChar

StartChar: guillemotleft
Encoding: 171 171 126
Width: 367
VWidth: 838
Flags: HMW
LayerCount: 2
Fore
SplineSet
173 49 m 1
 78 202 l 1
 81 219 l 1
 216 371 l 1
 227 367 l 1
 149 212 l 1
 184 56 l 1
 173 49 l 1
304 49 m 1
 209 202 l 1
 212 219 l 1
 348 371 l 1
 357 367 l 1
 280 212 l 1
 315 56 l 1
 304 49 l 1
EndSplineSet
EndChar

StartChar: exclamdown
Encoding: 161 161 127
Width: 180
VWidth: 838
Flags: HMW
LayerCount: 2
Fore
SplineSet
150 540 m 5
 180 540 l 5
 172 441 168 340 165 250 c 4
 163 181 166 113 158 56 c 4
 153 18 129 -10 89 -10 c 4
 55 -10 37 12 37 43 c 0
 37 47 37 51 38 56 c 4
 46 114 67 183 85 254 c 4
 108 343 130 442 150 540 c 5
187 700 m 3
 216 700 235 680 235 653 c 0
 235 650 235 648 235 645 c 0
 230 612 205 590 172 590 c 3
 143 590 124 609 124 636 c 0
 124 639 125 642 125 645 c 0
 129 674 157 700 187 700 c 3
EndSplineSet
EndChar

StartChar: mu
Encoding: 181 181 128
Width: 495
VWidth: 838
Flags: HMW
LayerCount: 2
Back
SplineSet
335 35 m 5
 296 0 256 -10 188 -10 c 4
 98 -10 80 50 80 142 c 6
 80 410 l 5
 20 430 l 5
 20 450 l 5
 160 450 l 5
 160 162 l 6
 160 91 162 35 230 35 c 4
 278 35 310 55 335 85 c 5
 335 410 l 5
 275 430 l 5
 275 450 l 5
 415 450 l 5
 415 50 l 5
 475 30 l 5
 475 20 l 5
 355 -10 l 5
 345 -10 l 5
 345 30 l 5
 335 35 l 5
EndSplineSet
Fore
SplineSet
340 35 m 1
 296 0 255 -10 187 -10 c 3
 168 -10 152 -7 140 -2 c 1
 129 -78 l 1
 69 -78 l 1
 138 410 l 1
 80 430 l 1
 83 450 l 1
 223 450 l 1
 183 162 l 2
 180 139 177 117 177 99 c 0
 177 60 189 35 235 35 c 3
 283 35 318 55 347 85 c 1
 393 410 l 1
 335 430 l 1
 338 450 l 1
 478 450 l 1
 422 50 l 1
 479 30 l 1
 478 20 l 1
 354 -10 l 1
 344 -10 l 1
 349 30 l 1
 340 35 l 1
EndSplineSet
EndChar

StartChar: guillemotright
Encoding: 187 187 129
Width: 367
VWidth: 838
Flags: HMW
LayerCount: 2
Fore
SplineSet
198 56 m 5
 277 212 l 5
 244 367 l 5
 254 371 l 5
 348 219 l 5
 345 202 l 5
 208 49 l 5
 198 56 l 5
68 56 m 5
 147 212 l 5
 113 367 l 5
 123 371 l 5
 217 219 l 5
 214 202 l 5
 76 49 l 5
 68 56 l 5
EndSplineSet
EndChar

StartChar: questiondown
Encoding: 191 191 130
Width: 433
VWidth: 838
Flags: HMW
LayerCount: 2
Fore
SplineSet
124 115 m 4
 124 113 124 111 124 109 c 0
 124 79 151 40 221 40 c 7
 297 40 319 110 328 175 c 4
 329 182 329 189 329 196 c 0
 329 234 314 267 284 298 c 4
 244 340 234 384 234 422 c 0
 234 437 235 452 237 464 c 6
 244 510 l 29
 284 510 l 29
 277 466 l 6
 276 458 276 449 276 442 c 0
 276 393 302 366 336 338 c 4
 374 307 417 253 417 184 c 0
 417 177 417 169 416 161 c 4
 403 70 326 -10 224 -10 c 7
 116 -10 61 62 61 136 c 0
 61 143 61 150 62 157 c 4
 67 192 93 200 109 200 c 7
 127 200 144 190 144 170 c 0
 144 168 143 167 143 165 c 4
 139 137 128 144 124 115 c 4
290 700 m 7
 319 700 338 680 338 653 c 0
 338 650 338 648 338 645 c 4
 333 612 308 590 275 590 c 7
 246 590 227 609 227 636 c 0
 227 639 228 642 228 645 c 4
 232 674 260 700 290 700 c 7
EndSplineSet
EndChar

StartChar: registered
Encoding: 174 174 131
Width: 576
VWidth: 838
Flags: HMW
LayerCount: 2
Back
SplineSet
190.139648438 560.813476562 m 1
 289.0625 560.813476562 l 2
 317.565429688 560.813476562 340.620117188 554.666992188 358.224609375 542.370117188 c 0
 375.830078125 530.075195312 384.631835938 512.19140625 384.631835938 488.717773438 c 0
 384.631835938 471.391601562 379.461914062 457.418945312 369.123046875 446.80078125 c 0
 358.784179688 436.180664062 344.391601562 428.63671875 325.94921875 424.165039062 c 1
 382.956054688 319.374023438 l 1
 408.104492188 312.666992188 l 1
 408.104492188 302.607421875 l 1
 336.009765625 302.607421875 l 1
 276.48828125 419.973632812 l 1
 257.206054688 419.973632812 l 1
 257.206054688 319.374023438 l 1
 287.385742188 312.666992188 l 1
 287.385742188 302.607421875 l 1
 190.139648438 302.607421875 l 1
 190.139648438 312.666992188 l 1
 211.936523438 319.374023438 l 1
 211.936523438 543.208007812 l 1
 190.139648438 549.915039062 l 1
 190.139648438 560.813476562 l 1
257.206054688 437.579101562 m 1
 279.002929688 437.579101562 297.306640625 441.4921875 312.116210938 449.31640625 c 0
 326.926757812 457.139648438 334.333007812 470.83203125 334.333007812 490.393554688 c 0
 334.333007812 507.719726562 328.463867188 520.853515625 316.727539062 529.795898438 c 0
 304.990234375 538.73828125 285.150390625 543.208984375 257.206054688 543.208984375 c 1
 257.206054688 437.579101562 l 1
EndSplineSet
Fore
SplineSet
342 410 m 5
 305 410 l 5
 291 312 l 5
 320 306 l 5
 319 298 l 5
 226 298 l 5
 227 306 l 5
 256 312 l 5
 288 544 l 5
 261 550 l 5
 262 558 l 5
 362 558 l 6
 402 558 432 543 441 516 c 4
 443 510 444 503 444 495 c 0
 444 492 443 488 443 485 c 4
 438 448 414 424 381 416 c 5
 430 312 l 5
 459 306 l 5
 458 298 l 5
 392 298 l 5
 342 410 l 5
330 432 m 6
 372 432 398 448 404 488 c 4
 405 493 405 496 405 500 c 0
 405 530 385 538 350 538 c 6
 323 538 l 5
 308 432 l 5
 330 432 l 6
115 428 m 0
 134 561 248 659 381 659 c 3
 502 659 584 577 584 463 c 0
 584 452 583 440 581 428 c 0
 562 296 447 195 315 195 c 3
 195 195 113 279 113 393 c 0
 113 404 113 416 115 428 c 0
146 428 m 0
 144 417 144 406 144 395 c 0
 144 294 213 221 319 221 c 3
 436 221 534 311 550 428 c 0
 552 439 552 450 552 460 c 0
 552 560 483 633 377 633 c 3
 260 633 162 545 146 428 c 0
EndSplineSet
EndChar

StartChar: copyright
Encoding: 169 169 132
Width: 755
VWidth: 0
Flags: HMW
LayerCount: 2
Back
SplineSet
191.654296875 327.7578125 m 0
 191.654296875 356.259765625 196.262695312 382.393554688 205.484375 406.145507812 c 0
 214.706054688 429.8984375 227.420898438 450.296875 243.62890625 467.342773438 c 0
 259.8359375 484.388671875 279.118164062 497.801757812 301.473632812 507.58203125 c 0
 323.829101562 517.36328125 348.140625 522.25390625 374.408203125 522.25390625 c 0
 412.970703125 522.25390625 447.342773438 511.076171875 477.522460938 488.719726562 c 1
 480.875976562 488.719726562 l 1
 500.99609375 520.577148438 l 1
 512.732421875 520.577148438 l 1
 512.732421875 400.6953125 l 1
 494.2890625 400.6953125 l 1
 491.495117188 410.196289062 488.700195312 418.020507812 485.90625 424.166992188 c 0
 483.112304688 430.315429688 479.759765625 436.462890625 475.846679688 442.610351562 c 0
 465.227539062 460.494140625 452.79296875 473.348632812 438.541015625 481.171875 c 0
 424.2890625 488.997070312 407.3828125 492.909179688 387.822265625 492.909179688 c 0
 349.258789062 492.909179688 320.196289062 479.076171875 300.635742188 451.412109375 c 0
 281.075195312 423.747070312 271.294921875 384.205078125 271.294921875 332.788085938 c 0
 271.294921875 280.252929688 281.21484375 239.733398438 301.0546875 211.23046875 c 0
 320.895507812 182.7265625 349.258789062 168.474609375 386.145507812 168.474609375 c 0
 421.915039062 168.474609375 450.138671875 183.286132812 470.817382812 212.907226562 c 0
 476.407226562 220.731445312 481.296875 229.953125 485.48828125 240.571289062 c 0
 489.6796875 251.19140625 493.173828125 262.927734375 495.967773438 275.782226562 c 1
 512.734375 275.782226562 l 1
 512.734375 140.810546875 l 1
 500.998046875 140.810546875 l 1
 479.201171875 179.373046875 l 1
 462.993164062 165.959960938 446.645507812 156.040039062 430.158203125 149.61328125 c 0
 413.671875 143.185546875 394.80859375 139.97265625 373.571289062 139.97265625 c 0
 346.744140625 139.97265625 322.29296875 144.583007812 300.216796875 153.8046875 c 0
 278.141601562 163.025390625 259 175.880859375 242.791992188 192.368164062 c 0
 226.584960938 208.854492188 214.009765625 228.555664062 205.068359375 251.469726562 c 0
 196.125 274.383789062 191.654296875 299.813476562 191.654296875 327.7578125 c 0
EndSplineSet
Fore
SplineSet
230 324 m 0
 246 440 328 526 443 526 c 3
 486 526 521 512 547 495 c 1
 549 495 l 1
 577 520 l 1
 586 520 l 1
 570 405 l 1
 555 405 l 1
 544 461 518 496 447 496 c 3
 353 496 307 428 293 328 c 0
 291 312 290 297 290 282 c 0
 290 207 321 157 399 157 c 3
 473 157 515 197 536 261 c 1
 550 261 l 1
 531 130 l 1
 519 130 l 1
 499 153 l 1
 464 130 433 124 384 124 c 3
 283 124 227 191 227 287 c 0
 227 299 228 311 230 324 c 0
91 328 m 0
 118 517 281 659 470 659 c 3
 643 659 760 541 760 378 c 0
 760 362 758 345 756 328 c 0
 729 139 566 -3 377 -3 c 3
 204 -3 87 114 87 277 c 0
 87 293 89 311 91 328 c 0
134 328 m 0
 132 313 131 298 131 283 c 0
 131 140 231 34 382 34 c 3
 548 34 689 162 712 328 c 0
 714 343 715 358 715 373 c 0
 715 516 615 621 464 621 c 3
 298 621 157 494 134 328 c 0
EndSplineSet
EndChar

StartChar: ampersand
Encoding: 38 38 133
Width: 662
VWidth: 838
Flags: HMW
LayerCount: 2
Fore
SplineSet
216 -10 m 3
 114 -10 55 40 55 126 c 0
 55 135 56 146 57 156 c 0
 70 251 128 326 230 390 c 1
 210 421 199 439 199 475 c 0
 199 486 200 499 202 514 c 0
 214 601 288 660 376 660 c 3
 436 660 483 630 483 575 c 0
 483 570 483 565 482 560 c 0
 471 482 401 435 333 391 c 1
 455 210 l 1
 486 252 514 301 518 333 c 0
 518 335 518 336 518 338 c 0
 518 359 498 364 467 370 c 1
 471 400 l 1
 664 400 l 1
 660 370 l 1
 605 365 599 368 581 321 c 0
 560 265 528 203 492 154 c 1
 566 42 l 1
 635 20 l 1
 632 0 l 1
 486 0 l 1
 431 84 l 1
 377 33 309 -10 216 -10 c 3
149 193 m 0
 147 180 146 168 146 157 c 0
 146 95 176 65 251 65 c 3
 316 65 355 105 393 140 c 1
 258 344 l 1
 208 310 159 267 149 193 c 0
351 610 m 3
 315 610 270 583 265 545 c 0
 265 542 264 539 264 536 c 0
 264 504 285 462 304 434 c 1
 367 473 419 515 424 553 c 0
 424 556 424 558 424 560 c 0
 424 589 399 610 351 610 c 3
EndSplineSet
EndChar

StartChar: f_f
Encoding: 64256 64256 134
Width: 725
VWidth: 838
Flags: HMW
LayerCount: 2
Back
SplineSet
382 589 m 7
 382 564 366 548 341 548 c 7
 281 548 321 620 259 620 c 7
 180 620 180 540 180 455 c 6
 180 450 l 5
 300 450 l 5
 300 410 l 5
 180 410 l 5
 180 30 l 5
 240 20 l 5
 240 0 l 5
 40 0 l 5
 40 20 l 5
 100 30 l 5
 100 410 l 5
 20 410 l 5
 35 450 l 5
 100 450 l 5
 100 503 l 6
 100 569 133 606 176 633 c 4
 202 649 236 660 275 660 c 7
 327 660 382 636 382 589 c 7
642 629 m 7
 642 604 626 588 601 588 c 7
 541 588 581 660 519 660 c 7
 440 660 440 580 440 495 c 6
 440 450 l 5
 560 450 l 5
 560 410 l 5
 440 410 l 5
 440 30 l 5
 500 20 l 5
 500 0 l 5
 300 0 l 5
 300 20 l 5
 360 30 l 5
 360 410 l 5
 280 410 l 5
 295 450 l 5
 360 450 l 5
 360 543 l 6
 360 609 393 646 436 673 c 4
 462 689 496 700 535 700 c 7
 587 700 642 676 642 629 c 7
EndSplineSet
Fore
SplineSet
789 630 m 0
 785 605 768 590 743 590 c 0
 683 590 735 660 643 660 c 3
 564 660 542 580 530 495 c 2
 523 450 l 1
 643 450 l 1
 638 410 l 1
 518 410 l 1
 466 40 l 1
 524 30 l 1
 520 0 l 1
 320 0 l 1
 324 30 l 1
 386 40 l 1
 438 410 l 1
 238 410 l 1
 186 40 l 1
 244 30 l 1
 240 0 l 1
 40 0 l 1
 44 30 l 1
 106 40 l 1
 158 410 l 1
 78 410 l 1
 98 450 l 1
 163 450 l 1
 181 580 291 660 388 660 c 3
 432 660 488 646 501 612 c 1
 546 668 612 700 673 700 c 3
 723 700 789 682 789 637 c 0
 789 635 789 632 789 630 c 0
465 551 m 1
 463 551 460 550 457 550 c 3
 397 550 449 620 357 620 c 3
 278 620 256 540 244 455 c 2
 243 450 l 1
 443 450 l 1
 449 490 l 2
 452 512 457 532 465 551 c 1
EndSplineSet
LCarets2: 1 300
Ligature2: "'liga' standard ligatures-subtable" f f
EndChar

StartChar: f_i
Encoding: 64257 64257 135
Width: 545
VWidth: 838
Flags: HMW
LayerCount: 2
Back
SplineSet
450 460 m 5
 460 460 l 5
 460 40 l 5
 520 30 l 5
 520 0 l 5
 320 0 l 5
 320 30 l 5
 380 40 l 5
 380 380 l 5
 320 400 l 5
 320 420 l 5
 400 435 420 445 450 460 c 5
420 549 m 7
 390 549 365 575 365 604 c 7
 365 636 388 659 420 659 c 7
 453 659 475 637 475 604 c 7
 475 573 452 549 420 549 c 7
460 630 m 7
 460 605 445 590 420 590 c 7
 360 590 402 660 310 660 c 7
 231 660 180 580 180 495 c 6
 180 450 l 5
 300 450 l 5
 300 410 l 5
 180 410 l 5
 180 40 l 5
 240 30 l 5
 240 0 l 5
 40 0 l 5
 40 30 l 5
 100 40 l 5
 100 410 l 5
 20 410 l 5
 35 450 l 5
 100 450 l 5
 100 490 l 6
 100 620 238 700 335 700 c 7
 387 700 460 680 460 630 c 7
EndSplineSet
Fore
SplineSet
549 630 m 4
 545 605 528 590 503 590 c 7
 443 590 475 660 383 660 c 3
 304 660 262 580 250 495 c 2
 243 450 l 1
 383 450 l 1
 465 465 487 475 519 490 c 1
 529 490 l 1
 466 40 l 1
 524 30 l 1
 520 0 l 1
 320 0 l 1
 324 30 l 1
 386 40 l 1
 435 390 l 1
 378 410 l 1
 238 410 l 1
 186 40 l 1
 244 30 l 1
 240 0 l 1
 40 0 l 1
 44 30 l 1
 106 40 l 1
 158 410 l 1
 78 410 l 1
 98 450 l 1
 163 450 l 1
 169 490 l 2
 187 620 316 700 413 700 c 3
 463 700 549 681 549 635 c 0
 549 633 549 632 549 630 c 4
EndSplineSet
LCarets2: 1 300
Ligature2: "'liga' standard ligatures-subtable" f i
EndChar

StartChar: f_f_i
Encoding: 64259 64259 136
Width: 825
VWidth: 838
Flags: HMW
LayerCount: 2
Back
SplineSet
700 630 m 0
 700 605 685 590 660 590 c 0
 600 590 642 660 550 660 c 3
 471 660 460 580 460 495 c 2
 460 450 l 1
 580 450 l 1
 580 410 l 1
 460 410 l 1
 460 40 l 1
 520 30 l 1
 520 0 l 1
 320 0 l 1
 320 30 l 1
 380 40 l 1
 380 410 l 1
 180 410 l 1
 180 40 l 1
 240 30 l 1
 240 0 l 1
 40 0 l 1
 40 30 l 1
 100 40 l 1
 100 410 l 1
 20 410 l 1
 35 450 l 1
 100 450 l 1
 100 580 198 660 295 660 c 3
 339 660 397 646 415 612 c 1
 452 668 514 700 575 700 c 3
 627 700 700 680 700 630 c 0
388 551 m 1
 386 551 383 550 380 550 c 3
 320 550 362 620 270 620 c 3
 191 620 180 540 180 455 c 2
 180 450 l 1
 380 450 l 1
 380 490 l 2
 380 512 383 532 388 551 c 1
EndSplineSet
Fore
SplineSet
829 630 m 4
 825 605 808 590 783 590 c 7
 723 590 755 660 663 660 c 3
 584 660 542 580 530 495 c 2
 523 450 l 1
 663 450 l 1
 745 465 767 475 799 490 c 1
 809 490 l 1
 746 40 l 1
 804 30 l 1
 800 0 l 1
 600 0 l 1
 604 30 l 1
 666 40 l 1
 715 390 l 1
 658 410 l 1
 518 410 l 1
 466 40 l 1
 524 30 l 1
 520 0 l 1
 320 0 l 1
 324 30 l 1
 386 40 l 1
 438 410 l 1
 238 410 l 1
 186 40 l 1
 244 30 l 1
 240 0 l 1
 40 0 l 1
 44 30 l 1
 106 40 l 1
 158 410 l 1
 78 410 l 1
 98 450 l 1
 163 450 l 1
 181 580 291 660 388 660 c 3
 434 660 493 644 502 606 c 1
 553 666 630 700 693 700 c 3
 743 700 829 681 829 635 c 0
 829 633 829 632 829 630 c 4
466 551 m 1
 463 551 460 550 457 550 c 3
 397 550 449 620 357 620 c 3
 278 620 256 540 244 455 c 2
 243 450 l 1
 443 450 l 1
 449 490 l 2
 452 512 457 532 466 551 c 1
EndSplineSet
LCarets2: 2 300 580
Ligature2: "'liga' standard ligatures-subtable" f f i
EndChar

StartChar: f_l
Encoding: 64258 64258 137
Width: 545
VWidth: 838
Flags: HMW
LayerCount: 2
Back
SplineSet
460 630 m 4
 460 605 445 590 420 590 c 4
 360 590 382 660 290 660 c 7
 211 660 180 580 180 495 c 6
 180 450 l 5
 320 450 l 5
 400 465 420 475 450 490 c 5
 460 490 l 5
 460 40 l 5
 520 30 l 5
 520 0 l 5
 320 0 l 5
 320 30 l 5
 380 40 l 5
 380 390 l 5
 320 410 l 5
 180 410 l 5
 180 40 l 5
 240 30 l 5
 240 0 l 5
 40 0 l 5
 40 30 l 5
 100 40 l 5
 100 410 l 5
 20 410 l 5
 35 450 l 5
 100 450 l 5
 100 490 l 6
 100 620 218 700 315 700 c 7
 367 700 460 680 460 630 c 4
EndSplineSet
Fore
SplineSet
466 40 m 5
 524 30 l 5
 520 0 l 5
 320 0 l 5
 324 30 l 5
 386 40 l 5
 438 410 l 5
 238 410 l 5
 186 40 l 5
 244 30 l 5
 240 0 l 5
 40 0 l 5
 44 30 l 5
 106 40 l 5
 158 410 l 5
 78 410 l 5
 98 450 l 5
 163 450 l 5
 169 490 l 6
 187 620 316 700 413 700 c 7
 440 700 479 694 507 682 c 5
 523 687 534 693 548 700 c 5
 558 700 l 5
 549 630 l 5
 466 40 l 5
465 608 m 5
 450 629 444 660 383 660 c 7
 304 660 262 580 250 495 c 6
 243 450 l 5
 443 450 l 5
 465 608 l 5
EndSplineSet
LCarets2: 1 300
Ligature2: "'liga' standard ligatures-subtable" f l
EndChar

StartChar: f_f_l
Encoding: 64260 64260 138
Width: 825
VWidth: 838
Flags: HMW
LayerCount: 2
Fore
SplineSet
745 608 m 1
 730 629 724 660 663 660 c 3
 584 660 542 580 530 495 c 2
 523 450 l 1
 723 450 l 1
 745 608 l 1
746 40 m 1
 804 30 l 1
 800 0 l 1
 600 0 l 1
 604 30 l 1
 666 40 l 1
 718 410 l 1
 518 410 l 1
 466 40 l 1
 524 30 l 1
 520 0 l 1
 320 0 l 1
 324 30 l 1
 386 40 l 1
 438 410 l 1
 238 410 l 1
 186 40 l 1
 244 30 l 1
 240 0 l 1
 40 0 l 1
 44 30 l 1
 106 40 l 1
 158 410 l 1
 78 410 l 1
 98 450 l 1
 163 450 l 1
 181 580 291 660 388 660 c 3
 434 660 493 644 502 606 c 1
 553 666 630 700 693 700 c 3
 720 700 759 694 787 682 c 1
 803 687 814 693 828 700 c 1
 838 700 l 1
 829 630 l 1
 746 40 l 1
443 450 m 1
 449 490 l 2
 452 512 457 532 466 551 c 1
 463 551 460 550 457 550 c 3
 397 550 449 620 357 620 c 3
 278 620 256 540 244 455 c 2
 243 450 l 1
 443 450 l 1
EndSplineSet
LCarets2: 2 300 580
Ligature2: "'liga' standard ligatures-subtable" f f l
EndChar

StartChar: T_h
Encoding: 65536 -1 139
Width: 1047
VWidth: 838
Flags: HMW
LayerCount: 2
Back
SplineSet
677 701 m 1
 687 701 l 1
 687 403 l 1
 729 440 786 458 855 458 c 0
 906 458 949 434 958 393 c 0
 962 374 962 354 962 331 c 2
 962 331 962 128 962 29 c 1
 1025 17 l 1
 1025 0 l 1
 821 0 l 1
 821 17 l 1
 883 29 l 1
 883 280 l 2
 883 354 878 401 807 401 c 0
 760 401 720 385 687 349 c 1
 687 29 l 1
 749 17 l 1
 749 0 l 1
 544 0 l 1
 544 17 l 1
 608 29 l 1
 608 466 l 2
 608 556 607 593 538 593 c 2
 364 593 l 1
 364 35 l 1
 456 20 l 1
 456 0 l 1
 184 0 l 1
 184 20 l 1
 276 35 l 1
 276 593 l 1
 99 593 l 1
 66 550 50 520 31 466 c 1
 10 466 l 1
 41 650 l 1
 545 650 l 1
 623 666 645 685 677 701 c 1
EndSplineSet
Fore
SplineSet
748 410 m 1
 795 447 834 460 903 460 c 0
 954 460 1012 433 1017 393 c 0
 1018 388 1018 383 1018 378 c 0
 1018 363 1016 348 1014 331 c 2
 1014 331 985 129 971 30 c 1
 1030 20 l 1
 1027 0 l 1
 827 0 l 1
 830 20 l 1
 891 30 l 1
 926 280 l 2
 929 302 932 322 932 340 c 0
 932 382 919 410 869 410 c 0
 822 410 779 396 741 360 c 1
 694 30 l 1
 753 20 l 1
 750 0 l 1
 550 0 l 1
 553 20 l 1
 614 30 l 1
 676 470 l 2
 680 496 683 518 683 536 c 0
 683 572 670 590 623 590 c 2
 448 590 l 1
 370 35 l 1
 458 20 l 1
 455 0 l 1
 185 0 l 1
 188 20 l 1
 280 35 l 1
 358 590 l 1
 183 590 l 1
 142 548 124 525 96 470 c 1
 76 470 l 1
 131 650 l 1
 641 650 l 1
 723 665 745 675 777 690 c 1
 787 690 l 1
 748 410 l 1
EndSplineSet
LCarets2: 1 510
Ligature2: "'dlig' discretionary/historic ligatures-subtable" T h
EndChar

StartChar: minus
Encoding: 8722 8722 140
Width: 530
VWidth: 838
Flags: HMW
LayerCount: 2
Fore
SplineSet
97 230 m 5
 103 270 l 5
 503 270 l 5
 497 230 l 5
 97 230 l 5
EndSplineSet
EndChar

StartChar: divide
Encoding: 247 247 141
Width: 530
VWidth: 838
Flags: HMW
LayerCount: 2
Fore
SplineSet
278 90 m 7
 250 90 230 112 230 138 c 0
 230 140 230 143 230 145 c 4
 234 177 261 200 293 200 c 7
 323 200 341 183 341 155 c 0
 341 152 340 148 340 145 c 4
 336 114 310 90 278 90 c 7
310 320 m 3
 282 320 262 342 262 368 c 0
 262 370 263 373 263 375 c 0
 267 407 293 430 325 430 c 3
 355 430 373 413 373 385 c 0
 373 382 373 378 373 375 c 0
 369 344 342 320 310 320 c 3
99 240 m 1
 104 280 l 1
 504 280 l 1
 499 240 l 1
 99 240 l 1
EndSplineSet
EndChar

StartChar: dotlessi
Encoding: 305 305 142
Width: 245
VWidth: 838
Flags: HMW
AnchorPoint: "upper" 197 510 basechar 0
LayerCount: 2
Fore
SplineSet
220 460 m 1
 230 460 l 1
 169 30 l 1
 228 20 l 1
 225 0 l 1
 25 0 l 1
 28 20 l 1
 89 30 l 1
 138 380 l 1
 81 400 l 1
 84 420 l 1
 166 435 188 445 220 460 c 1
EndSplineSet
EndChar

StartChar: tilde
Encoding: 732 732 145
Width: 490
VWidth: 838
Flags: HMW
AnchorPoint: "upper" 318 520 mark 0
LayerCount: 2
Fore
SplineSet
249 565 m 3
 214 565 197 550 183 520 c 1
 159 530 l 1
 166 580 211 615 271 615 c 3
 341 615 330 570 400 570 c 3
 435 570 452 585 466 615 c 1
 490 605 l 1
 483 555 438 520 378 520 c 3
 308 520 319 565 249 565 c 3
EndSplineSet
EndChar

StartChar: circumflex
Encoding: 710 710 149
Width: 397
VWidth: 838
Flags: HMW
AnchorPoint: "upper" 272 520 mark 0
LayerCount: 2
Fore
SplineSet
143 520 m 1
 273 621 l 1
 300 621 l 1
 400 520 l 5
 340 520 l 5
 280 579 l 1
 203 520 l 1
 143 520 l 1
EndSplineSet
EndChar

StartChar: germandbls
Encoding: 223 223 192
Width: 607
VWidth: 838
Flags: HMW
LayerCount: 2
Back
SplineSet
267 335 m 0
 267 423 333 460 426 460 c 3
 461 460 505 456 528 446 c 1
 528 331 l 1
 508 331 l 1
 489 403 467 410 419 410 c 3
 375 410 347 384 347 345 c 0
 347 271 455 261 493 235 c 0
 524 214 548 181 548 128 c 3
 548 37 484 -10 390 -10 c 3
 351 -10 302 -3 272 8 c 1
 267 143 l 1
 287 143 l 1
 305 55 342 35 397 35 c 3
 435 35 468 69 468 113 c 3
 468 187 370 199 323 231 c 0
 292 253 267 282 267 335 c 0
190 30 m 1
 250 20 l 1
 250 0 l 1
 50 0 l 1
 50 20 l 1
 110 30 l 1
 110 410 l 1
 30 410 l 1
 45 450 l 1
 110 450 l 1
 110 543 l 2
 110 609 143 646 186 673 c 0
 212 689 247 700 280 700 c 3
 364 700 451 676 451 629 c 0
 451 604 435 588 410 588 c 0
 350 588 383 660 280 660 c 3
 206 660 190 627 190 495 c 2
 190 30 l 1
EndSplineSet
Fore
SplineSet
455 581 m 0
 456 586 456 591 456 595 c 0
 456 642 418 660 372 660 c 3
 283 660 272 580 260 495 c 2
 196 40 l 1
 254 30 l 1
 250 0 l 1
 50 0 l 1
 54 30 l 1
 116 40 l 1
 186 543 l 2
 195 609 234 646 281 673 c 0
 309 689 344 700 383 700 c 3
 478 700 540 675 540 622 c 0
 540 619 540 616 539 612 c 0
 517 459 408 438 395 345 c 0
 395 342 395 338 395 335 c 0
 395 270 493 260 526 235 c 0
 550 217 568 190 568 150 c 0
 568 143 567 136 566 128 c 0
 553 37 483 -10 389 -10 c 3
 340 -10 278 10 278 52 c 0
 278 54 278 56 278 58 c 0
 282 88 302 108 331 108 c 3
 387 108 342 40 403 40 c 3
 441 40 479 74 484 113 c 0
 485 117 485 121 485 124 c 0
 485 188 395 201 355 231 c 0
 331 250 313 274 313 314 c 0
 313 320 313 328 314 335 c 0
 330 446 439 470 455 581 c 0
EndSplineSet
EndChar

StartChar: f_j
Encoding: 65537 -1 198
Width: 535
VWidth: 838
Flags: HMW
LayerCount: 2
Back
SplineSet
460 630 m 0
 460 605 445 590 420 590 c 0
 360 590 382 660 290 660 c 3
 211 660 180 580 180 495 c 2
 180 450 l 1
 320 450 l 1
 400 465 420 475 450 490 c 1
 460 490 l 1
 460 40 l 1
 520 30 l 1
 520 0 l 1
 320 0 l 1
 320 30 l 1
 380 40 l 1
 380 390 l 1
 320 410 l 1
 180 410 l 1
 180 40 l 1
 240 30 l 1
 240 0 l 1
 40 0 l 1
 40 30 l 1
 100 40 l 1
 100 410 l 1
 20 410 l 1
 35 450 l 1
 100 450 l 1
 100 490 l 2
 100 620 218 700 315 700 c 3
 367 700 460 680 460 630 c 0
EndSplineSet
Fore
SplineSet
460 0 m 2
 447 -96 360 -157 263 -157 c 3
 214 -157 167 -136 167 -94 c 0
 167 -91 168 -89 168 -86 c 0
 172 -61 190 -45 215 -45 c 3
 275 -45 223 -117 285 -117 c 3
 364 -117 380 -2 386 40 c 2
 435 390 l 1
 378 410 l 1
 238 410 l 1
 186 40 l 1
 244 30 l 1
 240 0 l 1
 40 0 l 1
 44 30 l 1
 106 40 l 1
 158 410 l 1
 78 410 l 1
 98 450 l 1
 163 450 l 1
 169 490 l 2
 187 620 316 700 413 700 c 3
 463 700 549 681 549 635 c 0
 549 633 549 632 549 630 c 0
 545 605 528 590 503 590 c 3
 443 590 475 660 383 660 c 3
 304 660 262 580 250 495 c 2
 243 450 l 1
 383 450 l 1
 465 465 487 475 519 490 c 1
 529 490 l 1
 460 0 l 2
EndSplineSet
Ligature2: "'dlig' discretionary/historic ligatures-subtable" f j
LCarets2: 1 270
EndChar
